<svg height="511pt" viewBox="-16 0 511 511.70192" width="511pt" xmlns="http://www.w3.org/2000/svg"><path d="m145.621094 417.410156v64.425782c0 11.78125-9.550782 21.332031-21.332032 21.332031-2.941406.015625-5.851562-.59375-8.535156-1.792969-7.785156-3.375-12.816406-11.054688-12.800781-19.539062v-64h38.402344c1.429687-.011719 2.859375-.15625 4.265625-.425782zm0 0" fill="#37474f"/><path d="m124.289062 417.835938v64.425781c.015626 8.484375-5.015624 16.167969-12.800781 19.542969-7.785156-3.375-12.816406-11.058594-12.800781-19.542969v-64h21.332031c1.433594-.011719 2.863281-.152344 4.269531-.425781zm0 0" fill="#607d8b"/><path d="m145.621094 375.59375v-77.226562h-21.503906v77.226562c9.941406 2.019531 17.085937 10.761719 17.085937 20.90625 0 10.148438-7.144531 18.890625-17.085937 20.910156-1.40625.269532-2.835938.414063-4.265626.425782h21.503907c1.429687-.011719 2.859375-.15625 4.265625-.425782 9.941406-2.019531 17.089844-10.761718 17.089844-20.910156 0-10.144531-7.148438-18.886719-17.089844-20.90625zm0 0" fill="#37474f"/><path d="m124.117188 375.59375v-77.226562h-63.828126v12.460937l-34.21875 34.304687c-12.089843 12.121094-15.761718 30.296876-9.328124 46.164063 6.4375 15.867187 21.734374 26.347656 38.851562 26.625l25.855469-.085937h38.402343c1.429688-.011719 2.859376-.15625 4.265626-.425782 9.941406-2.019531 17.085937-10.761718 17.085937-20.910156 0-10.144531-7.144531-18.886719-17.085937-20.90625zm-21.164063-.425781h-36.265625c-1.722656.011719-3.28125-1.015625-3.953125-2.601563-.671875-1.585937-.324219-3.421875.882813-4.652344l17.832031-17.832031 14.25-14.253906c1.230469-1.203125 3.066406-1.550781 4.652343-.878906 1.585938.671875 2.613282 2.230469 2.601563 3.953125zm0 0" fill="#607d8b"/><path d="m164.566406 261.675781-18.945312 9.984375-.339844.253906-2.816406 1.453126c-8.34375 4.378906-18.65625 1.171874-23.042969-7.167969-1.296875-2.445313-1.96875-5.171875-1.960937-7.9375 0-1.894531.347656-3.773438 1.023437-5.546875 1.3125-4.144532 4.234375-7.585938 8.105469-9.558594l19.03125-10.066406 1.363281-.683594zm0 0" fill="#fdd7ad"/><path d="m197.417969 244.351562-8.277344 4.351563-24.574219 12.972656-3.328125-5.546875 9.726563-5.121094 8.277344-4.351562c4.800781-2.542969 8.105468-7.21875 8.898437-12.59375s-1.023437-10.808594-4.886719-14.628906l-45.824218-45.394532c-3.347657-3.292968-7.324219-5.875-11.691407-7.597656l2.816407-4.605468h2.984374c9.011719.003906 17.660157 3.5625 24.066407 9.898437l45.824219 45.398437c3.863281 3.816407 5.679687 9.25 4.886718 14.625-.792968 5.375-4.097656 10.050782-8.898437 12.59375zm0 0" fill="#c52828"/><path d="m179.242188 246.65625-8.277344 4.351562-9.726563 5.121094-14.253906-23.722656 16.898437-8.960938-18.261718-18.261718v27.90625l-13.484375 7.167968-5.546875 2.898438c-3.871094 1.972656-6.792969 5.414062-8.105469 9.558594-.675781 1.773437-1.023437 3.652344-1.023437 5.546875-.007813 2.765625.664062 5.492187 1.960937 7.9375 4.386719 8.339843 14.699219 11.546875 23.042969 7.167969l2.816406-1.453126.339844.34375v26.109376h-85.332032v-103.847657l-38.742187-38.828125c-7.976563-7.996094-12.457031-18.828125-12.460937-30.121094-.9375-23.132812 1.363281-46.285156 6.828124-68.78125.683594-2.386718 1.367188-4.691406 2.132813-7.082031 1.023437-3.242187 2.21875-6.484375 3.5-9.640625l32.253906 16.125c-3.300781 7.597656-5.898437 15.480469-7.765625 23.554688-2.765625 15.308594-3.710937 30.890625-2.8125 46.417968-.007812 1.949219.757813 3.824219 2.132813 5.207032l23.039062 22.953125c2.644531 2.707031 5.890625 4.753906 9.472657 5.976562l-.511719 1.535157 17.234375 28.757812 4.695312 7.847656c.785156 1.277344 2.171875 2.050782 3.667969 2.050782s2.886719-.773438 3.671875-2.050782l19.113281-32c4.367188 1.722656 8.34375 4.304688 11.691407 7.597656l45.824218 45.394532c3.863282 3.820312 5.679688 9.253906 4.886719 14.628906s-4.097656 10.050781-8.898437 12.59375zm0 0" fill="#f44335"/><path d="m128.554688 161.835938-21.929688 36.605468c-.785156 1.277344-2.175781 2.050782-3.671875 2.050782s-2.882813-.773438-3.667969-2.050782l-21.929687-36.605468.511719-1.535157c2.757812 1.023438 5.675781 1.546875 8.617187 1.535157zm0 0" fill="#ffecb3"/><path d="m68.566406 22.996094c.765625 9.304687-8.023437 18.945312-11.949218 26.882812-1.023438 2.046875-1.960938 4.179688-2.816407 6.3125l-32.253906-16.125c1.933594-5.039062 4.363281-9.867187 7.253906-14.421875 4.949219-7.765625 13.3125-17.066406 23.292969-17.152343 8.40625-.128907 15.535156 6.152343 16.472656 14.503906zm0 0" fill="#fdd7ad"/><path d="m145.621094 97.835938c.011718 10.1875-4.027344 19.964843-11.230469 27.167968-7.207031 7.203125-16.980469 11.246094-27.167969 11.230469-2.871094-.007813-5.730468-.320313-8.535156-.9375-17.515625-3.945313-29.960938-19.503906-29.960938-37.460937 0-17.957032 12.445313-33.515626 29.960938-37.460938 2.804688-.617188 5.664062-.933594 8.535156-.941406 10.1875-.011719 19.960938 4.03125 27.167969 11.234375 7.203125 7.203125 11.242187 16.980469 11.230469 27.167969zm0 0" fill="#bfa885"/><path d="m128.554688 97.835938c0-20.691407-13.371094-37.460938-29.867188-37.460938s-29.867188 16.769531-29.867188 37.460938c0 20.6875 13.371094 37.460937 29.867188 37.460937s29.867188-16.773437 29.867188-37.460937zm0 0" fill="#ffe0b2"/><path d="m376.019531 106.367188c.023438 15.9375-9.835937 30.214843-24.746093 35.839843-4.34375 1.71875-8.980469 2.585938-13.652344 2.5625-2.902344.011719-5.796875-.332031-8.617188-1.023437-17.425781-4.039063-29.753906-19.570313-29.734375-37.453125.023438-17.886719 12.386719-33.386719 29.816407-37.386719 2.804687-.617188 5.664062-.929688 8.535156-.9375 10.1875-.015625 19.964844 4.027344 27.167968 11.230469 7.203126 7.207031 11.246094 16.980469 11.230469 27.167969zm0 0" fill="#bfa885"/><path d="m358.953125 106.367188c.023437 15.9375-9.835937 30.214843-24.746094 35.839843-1.679687.679688-3.425781 1.195313-5.203125 1.539063-17.425781-4.039063-29.753906-19.570313-29.734375-37.453125.023438-17.886719 12.386719-33.386719 29.816407-37.386719 17.507812 3.945312 29.921874 19.519531 29.867187 37.460938zm0 0" fill="#ffe0b2"/><path d="m460.5 486.613281c-6.125 3.515625-13.589844 3.804688-19.96875.769531-3.863281-1.84375-7.078125-4.820312-9.214844-8.535156l-59.988281-104.019531 25.769531-8.875 15.273438-5.292969 55.894531 96.855469c5.871094 10.183594 2.398437 23.195313-7.765625 29.097656zm0 0" fill="#bfa885"/><path d="m282.15625 381.570312v100.265626c0 11.78125-9.554688 21.332031-21.335938 21.332031-3.195312.003906-6.347656-.726563-9.214843-2.132813-7.402344-3.53125-12.117188-11-12.117188-19.199218v-114.347657zm0 0" fill="#bfa885"/><path d="m442.15625 493.867188c-.5.339843-1.046875.601562-1.625.769531-3.863281-1.84375-7.078125-4.820313-9.214844-8.535157l-59.988281-104.019531 25.769531-8.875 52.820313 91.5625c5.871093 10.183594 2.398437 23.191407-7.761719 29.097657zm0 0" fill="#ffe0b2"/><path d="m263.808594 383.703125v100.265625c.046875 8.238281-4.722656 15.746094-12.203125 19.199219-7.402344-3.527344-12.117188-11-12.117188-19.199219v-108.289062zm0 0" fill="#ffe0b2"/><path d="m425.683594 354.6875c-3.582032 1.707031-8.105469 3.753906-13.3125 5.972656-3.410156 1.453125-7.167969 2.988282-11.175782 4.523438-9.78125 3.730468-19.75 6.949218-29.867187 9.644531-34.507813 10.480469-71.199219 11.511719-106.242187 2.984375-2.046876-.597656-4.09375-1.191406-6.140626-1.960938-10.042968-3.324218-19.621093-7.910156-28.503906-13.652343l-.085937-.085938-8.277344-6.316406c-2.03125-1.53125-3.273437-3.886719-3.390625-6.429687-.117188-2.542969.910156-5.003907 2.792969-6.710938l30.808593-27.988281c17.835938-16.222657 25-41.117188 18.515626-64.34375l-9.640626-34.21875v-.082031c14.164063-13.65625 34.898438-7.597657 43.089844-4.4375 2.285156.789062 4.796875.570312 6.914063-.597657 12.550781-5.90625 27.320312-4.535156 38.570312 3.582031-.097656.597657-.070312 1.207032.085938 1.792969l6.144531 21.84375 9.214844 32.941407 7.679687 8.617187 55.46875 61.527344c1.796875 1.996093 2.546875 4.722656 2.027344 7.359375-.523437 2.636718-2.253906 4.871094-4.675781 6.035156zm0 0" fill="#c52828"/><path d="m405.375 363.222656c-1.28125.597656-2.644531 1.277344-4.179688 1.960938-9.78125 3.730468-19.75 6.949218-29.867187 9.644531-34.507813 10.480469-71.199219 11.511719-106.242187 2.984375-2.046876-.597656-4.09375-1.191406-6.140626-1.960938-10.042968-3.324218-19.621093-7.910156-28.503906-13.652343l-.085937-.085938-8.277344-6.316406c-2.03125-1.53125-3.273437-3.886719-3.390625-6.429687-.117188-2.542969.910156-5.003907 2.792969-6.710938l30.808593-27.988281c17.835938-16.222657 25-41.117188 18.515626-64.34375l-9.640626-34.21875c9.300782-.59375 16.296876-4.863281 20.992188-3.070313 2.757812.980469 5.773438.980469 8.53125 0 15.019531-7.851562 29.695312 4.4375 38.742188 10.070313-.097657.597656-.070313 1.207031.085937 1.792969l6.144531 21.84375 9.214844 32.9375 7.679688 8.621093 55.464843 61.523438c1.796875 1.996093 2.550781 4.726562 2.027344 7.359375-.519531 2.636718-2.25 4.875-4.671875 6.039062zm0 0" fill="#f44335"/><path d="m426.027344 225.664062-5.546875 47.191407c-.632813 5.621093-4.011719 10.5625-9.019531 13.195312-5.007813 2.632813-10.996094 2.609375-15.984376-.054687-6.28125-3.40625-9.839843-10.316406-8.960937-17.410156l.085937-.425782 1.367188-11.519531 2.644531-22.699219c.472657-3.65625-1.503906-7.191406-4.863281-8.703125l-30.039062-13.910156c-1.214844-.546875-2.617188-.496094-3.789063.140625-1.175781.636719-1.980469 1.785156-2.183594 3.101562-9.054687-6.261718-20.269531-8.574218-31.0625-6.398437-6.800781-1.695313-13.960937-1.21875-20.480469 1.363281-7.085937-2.097656-14.558593-2.535156-21.84375-1.277344-5.730468-1.105468-11.628906-1.019531-17.324218.253907l-1.109375-3.925781c-1.808594-6.460938-3.292969-13.011719-4.4375-19.625l-24.316407-140.714844c-1.042968-7.101563 2.425782-14.101563 8.703126-17.578125 1.757812-.941407 3.660156-1.578125 5.632812-1.878907.851562-.085937 1.703125-.167968 2.472656-.167968 8.480469.019531 15.683594 6.210937 16.980469 14.589844l22.871094 127.316406c.652343 4.640625 3.472656 8.695312 7.59375 10.925781 3.511719 1.953125 7.652343 2.445313 11.519531 1.363281l27.648438-8.105468.9375-.257813c5.945312-1.691406 12.300781-1.207031 17.921874 1.367187l44.03125 20.308594 15.871094 7.339844c10.039063 4.644531 15.960938 15.210938 14.679688 26.195312zm0 0" fill="#bfa885"/><path d="m409.984375 225.664062-5.546875 47.191407c-.652344 5.582031-4 10.492187-8.960938 13.140625-6.28125-3.40625-9.839843-10.316406-8.960937-17.410156l.085937-.425782 1.367188-11.519531 2.644531-22.699219c.472657-3.65625-1.503906-7.191406-4.863281-8.703125l-30.039062-13.910156c-1.214844-.546875-2.617188-.496094-3.789063.140625-1.175781.636719-1.980469 1.785156-2.183594 3.101562-9.054687-6.261718-20.269531-8.574218-31.0625-6.398437-6.800781-1.695313-13.960937-1.21875-20.480469 1.363281-7.085937-2.097656-14.558593-2.535156-21.84375-1.277344-5.730468-1.105468-11.628906-1.019531-17.324218.253907l-1.109375-3.925781c-1.808594-6.460938-3.292969-13.011719-4.4375-19.625l-24.316407-140.714844c-1.042968-7.101563 2.425782-14.101563 8.703126-17.578125 4.851562 2.488281 8.214843 7.152343 9.042968 12.542969l22.871094 127.316406c.648438 4.300781 3.117188 8.117187 6.777344 10.46875 3.660156 2.351562 8.15625 3.015625 12.335937 1.820312l4.523438-1.363281 24.0625-7c4.949219-1.410156 10.207031-1.320313 15.105469.257813.9375.339843 1.878906.683593 2.816406 1.109374l44.03125 20.308594 15.871094 7.339844c10.039062 4.644531 15.960937 15.210938 14.679687 26.195312zm0 0" fill="#ffe0b2"/><path d="m51.753906 198.050781v109.226563l-31.699218 31.828125c-14.609376 14.65625-18.960938 36.664062-11.03125 55.773437 7.933593 19.113282 26.585937 31.570313 47.277343 31.574219h.105469l38.015625-.085937v55.46875c0 16.496093 13.371094 29.867187 29.867187 29.867187 16.492188 0 29.867188-13.371094 29.867188-29.867187v-58.410157c10.40625-4.902343 17.050781-15.375 17.050781-26.882812 0-11.503907-6.644531-21.976563-17.050781-26.878907v-92.851562l47.214844-24.90625c7.210937-3.804688 12.183594-10.8125 13.382812-18.875 1.203125-8.066406-1.507812-16.21875-7.300781-21.957031l-45.847656-45.417969c-7.972657-7.941406-18.777344-12.386719-30.03125-12.355469h-45.089844c-4.519531.007813-8.855469-1.785156-12.046875-4.980469l-22.683594-22.625v-6.824218c-.636718-12.445313.222656-24.917969 2.558594-37.15625 2.269531-9.699219 5.625-19.109375 10.003906-28.058594 1.167969-2.246094 2.453125-4.433594 3.847656-6.550781 5.570313-7.101563 8.683594-15.824219 8.867188-24.851563-1.285156-12.699218-12.023438-22.3398435-24.789062-22.253906h-.171876c-10.984374.0585938-21.804687 7.550781-30.464843 21.035156-6.234375 10.398438-10.921875 21.65625-13.910157 33.40625-5.691406 23.261719-8.09375 47.207032-7.140624 71.136719-.039063 13.574219 5.351562 26.601563 14.96875 36.179687zm72.535156 296.585938c-7.070312 0-12.800781-5.730469-12.800781-12.800781v-55.46875h25.597657v55.46875c0 7.070312-5.730469 12.800781-12.796876 12.800781zm26.136719-89.0625c-1.746093 1.730469-3.957031 2.914062-6.367187 3.410156-.890625.191406-1.792969.296875-2.703125.316406h-38.402344l-46.566406.085938h-.085938c-13.792969 0-26.234375-8.304688-31.523437-21.046875-5.289063-12.738282-2.390625-27.414063 7.351562-37.183594l34.175782-34.289062c.777343-.789063 1.394531-1.722657 1.816406-2.746094.375-.941406.578125-1.945313.597656-2.960938 0-.101562.058594-.1875.058594-.289062v-3.96875h68.269531v59.734375h-25.558594v-27.761719c0-5.175781-3.121093-9.84375-7.90625-11.824219-4.78125-1.980469-10.289062-.882812-13.949219 2.78125l-32.015624 32.015625c-3.664063 3.660156-4.757813 9.164063-2.78125 13.949219 1.980468 4.785156 6.648437 7.902344 11.824218 7.90625h74.695313c.859375.015625 1.714843.105469 2.558593.261719 4.617188.945312 8.34375 4.355468 9.695313 8.871094 1.351563 4.515624.113281 9.410156-3.226563 12.738281zm-6.605469-161.871094 8.78125 14.628906-10.964843 5.785157c-.195313.101562-.480469.28125-.761719.46875l-2.386719 1.226562c-4.191406 2.160156-9.339843.539062-11.539062-3.632812-.640625-1.207032-.96875-2.550782-.953125-3.917969.023437-1.015625.234375-2.019531.621094-2.960938.644531-2.003906 2.074218-3.664062 3.960937-4.597656zm-49.398437 122.933594h-17.460937l17.460937-17.460938zm19.0625-196.269531-10.53125 17.554687-10.527344-17.554687zm-51.097656-9.964844c2.25 2.175781 4.789062 4.035156 7.542969 5.519531.050781.09375.050781.207031.113281.308594l21.9375 36.566406c2.3125 3.851563 6.480469 6.210937 10.972656 6.210937 4.496094 0 8.660156-2.359374 10.976563-6.210937l19.359374-32.265625c6.132813.359375 11.925782 2.9375 16.300782 7.253906l45.847656 45.40625c1.949219 1.910156 2.867188 4.636719 2.46875 7.335938-.398438 2.703125-2.0625 5.050781-4.480469 6.316406l-25.703125 13.515625-8.796875-14.640625 8.933594-4.730469c2.394531-1.261719 4.046875-3.589843 4.453125-6.269531.40625-2.675781-.484375-5.390625-2.398438-7.304688l-18.25-18.253906c-.796874-.796875-1.742187-1.425781-2.785156-1.851562-2.628906-1.085938-5.628906-.792969-7.996094.789062-2.367187 1.582032-3.792968 4.238282-3.796874 7.085938v22.769531l-14.386719 7.609375c-8.355469 4.519531-13.625 13.199219-13.773438 22.699219-.007812 4.164062 1.007813 8.269531 2.964844 11.945312 4.894531 9.179688 14.84375 14.503907 25.195313 13.484375v6.144532h-68.265626v-95.316407c0-2.261719-.894531-4.425781-2.492187-6.027343l-38.730469-38.792969c-6.414062-6.386719-10.003906-15.070313-9.976562-24.121094-.90625-22.335937 1.277344-44.6875 6.492187-66.425781.660157-2.320313 1.375-4.726563 2.167969-7.175782l16.742188 8.371094c-2.125 5.71875-3.898438 11.558594-5.304688 17.492188-2.664062 13.539062-3.679688 27.34375-3.03125 41.125v7.226562c-.011719 4.21875 1.664062 8.265625 4.660156 11.238282zm-10.238281-143.359375h.050781c3.917969-.128907 7.292969 2.738281 7.796875 6.628906-.8125 5.246094-2.976563 10.191406-6.277344 14.34375-1.445312 2.296875-2.765625 4.496094-3.910156 6.640625l-17.066406-8.535156c1.015624-1.980469 2.054687-3.949219 3.25-5.828125 5.265624-8.257813 11.316406-13.199219 16.1875-13.226563zm0 0"/><path d="m60.289062 97.835938c0 25.917968 21.011719 46.933593 46.933594 46.933593 25.917969 0 46.933594-21.015625 46.933594-46.933593 0-25.921876-21.015625-46.933594-46.933594-46.933594-25.910156.027344-46.90625 21.023437-46.933594 46.933594zm46.933594-29.867188c16.492188 0 29.863282 13.371094 29.863282 29.867188 0 16.496093-13.371094 29.867187-29.863282 29.867187-16.496094 0-29.867187-13.371094-29.867187-29.867187 0-16.496094 13.371093-29.867188 29.867187-29.867188zm0 0"/><path d="m337.621094 153.300781c5.699218.03125 11.351562-1.023437 16.65625-3.105469 22.191406-8.425781 34.601562-32.089843 28.90625-55.136718-5.695313-23.042969-27.695313-38.207032-51.257813-35.328125-23.5625 2.882812-41.265625 22.902343-41.238281 46.636719-.019531 5.363281.894531 10.6875 2.707031 15.738281 6.667969 18.699219 24.371094 31.1875 44.226563 31.195312zm0-76.800781c14.386718.066406 26.679687 10.378906 29.25 24.535156 2.566406 14.152344-5.316406 28.128906-18.761719 33.246094-3.339844 1.316406-6.898437 1.980469-10.488281 1.953125-12.652344.003906-23.933594-7.964844-28.160156-19.890625-1.144532-3.199219-1.722657-6.574219-1.707032-9.976562 0-7.917969 3.148438-15.515626 8.75-21.117188 5.597656-5.601562 13.195313-8.75 21.117188-8.75zm0 0"/><path d="m215.730469 336.367188c-3.746094 3.410156-5.785157 8.304687-5.566407 13.363281.21875 5.0625 2.675782 9.761719 6.703126 12.835937l7.839843 5.972656c.347657.3125.71875.597657 1.109375.851563 1.707032 1.09375 3.414063 2.082031 5.121094 3.089844v109.355469c0 16.496093 13.371094 29.867187 29.867188 29.867187 16.492187 0 29.867187-13.371094 29.867187-29.867187v-90.609376c6.199219.65625 12.425781 1 18.660156 1.027344 19.496094-.234375 38.894531-2.8125 57.773438-7.679687l56.8125 98.515625c6.050781 10.457031 17.804687 16.234375 29.78125 14.648437 11.972656-1.589843 21.8125-10.238281 24.925781-21.910156 2.074219-7.632813.996094-15.78125-2.984375-22.613281l-51.117187-88.578125c1.707031-.773438 3.414062-1.550781 4.839843-2.242188 4.847657-2.328125 8.3125-6.808593 9.351563-12.085937 1.039062-5.273438-.46875-10.730469-4.070313-14.726563l-35.539062-39.441406c5.617187 1 11.410156.070313 16.433593-2.636719 7.40625-3.960937 12.414063-11.285156 13.414063-19.625l5.53125-47.191406c1.722656-14.679688-6.199219-28.804688-19.628906-34.984375l-59.910157-27.640625c-7.464843-3.441406-15.917968-4.074219-23.808593-1.785156l-28.605469 8.3125c-1.8125.53125-3.769531.246094-5.359375-.777344-1.660156-1.074219-2.757813-2.832031-2.992187-4.792969l-22.792969-127.097656c-1.980469-12.519531-12.738281-21.765625-25.414063-21.835937-.972656 0-2.054687.09375-3.796875.273437-13.976562 2.257813-23.527343 15.347656-21.417969 29.347656l24.3125 140.6875c1.191407 6.898438 2.730469 13.734375 4.613282 20.480469l12.84375 45.789062c5.710937 20.09375-.492188 41.6875-16 55.6875zm57.890625 145.46875c0 7.070312-5.730469 12.800781-12.800782 12.800781-7.070312 0-12.800781-5.730469-12.800781-12.800781v-100.914063c2.628907 1.066406 5.273438 2.046875 7.929688 2.917969h.050781l.273438.101562h.074218c2.117188.777344 4.269532 1.425782 6.394532 2.046875 3.558593 1.023438 7.191406 1.910157 10.878906 2.679688zm188.535156-10.367188c-1.335938 5-5.550781 8.703125-10.679688 9.382812-5.128906.683594-10.167968-1.792968-12.761718-6.269531l-54.613282-94.71875c8.226563-2.511719 16.410157-5.378906 24.550782-8.601562l52.25 90.554687c1.695312 2.917969 2.144531 6.394532 1.253906 9.652344zm-224.554688-428.453125c-.734374-4.574219 2.320313-8.902344 6.878907-9.742187 2.324219-.367188 4.699219.21875 6.59375 1.617187s3.148437 3.5 3.484375 5.832031l22.816406 127.085938c1.015625 6.738281 4.890625 12.710937 10.628906 16.386718 5.742188 3.671876 12.789063 4.691407 19.332032 2.789063l28.605468-8.304687c3.953125-1.175782 8.199219-.875 11.945313.855468l59.886719 27.628906c6.703124 3.09375 10.65625 10.152344 9.796874 17.484376l-5.523437 47.171874c-.335937 2.808594-2.019531 5.277344-4.511719 6.613282-2.550781 1.363281-5.617187 1.339844-8.148437-.058594-3.171875-1.898438-4.863281-5.542969-4.269531-9.191406l1.375-11.519532 2.679687-22.699218c.882813-7.339844-3.078125-14.410156-9.796875-17.492188l-30.054688-13.824218c-3.582031-1.65625-7.738281-1.539063-11.21875.324218-12.695312-6.832031-27.9375-6.964844-40.75-.359375-13.082031-5.582031-27.800781-5.976562-41.164062-1.101562l-.066406-.238281c-1.742188-6.179688-3.164063-12.445313-4.269532-18.773438zm135.269532 223.925781-12.3125-43.957031 21.625 9.960937-2.691406 22.6875-1.363282 11.519532c0 .164062.050782.316406.042969.480468h-.101563c-.179687 1.683594-.207031 3.378907-.085937 5.066407zm-93.867188-18.886718-8.070312-28.746094c9.65625-4.261719 20.671875-4.195313 30.277344.1875 4.570312 1.742187 9.675781 1.394531 13.96875-.949219 8.597656-4.183594 18.746093-3.636719 26.84375 1.453125l14.976562 53.453125c0 .074219.078125.132813.101562.21875.121094.292969.257813.578125.410157.855469.285156.679687.660156 1.320312 1.109375 1.902344.09375.109374.121094.253906.214844.367187l63.164062 70.210937c-3.5 1.707032-7.859375 3.660157-12.972656 5.8125-12.964844 5.546876-26.304688 10.164063-39.925782 13.816407-32.972656 10.230469-68.109374 11.277343-101.632812 3.027343-1.84375-.535156-3.6875-1.066406-5.84375-1.875-9.210938-3.046874-18-7.234374-26.164062-12.46875l-8.246094-6.28125 30.824218-28.023437c20.335938-18.34375 28.457032-46.660156 20.941407-72.992187zm0 0"/></svg>