<svg id="Layer_1" enable-background="new 0 0 512 512" height="512" viewBox="0 0 512 512" width="512" xmlns="http://www.w3.org/2000/svg"><g><g><g><g><g><g><g><g><g><g><g><g><circle cx="256" cy="256" fill="#57545c" r="256"/></g></g></g></g></g></g></g></g></g></g></g><path d="m66.647 382.101 35.574-242.204 40.59 40.292c26.307-38.12 193.629-51.981 220.27-23.176l46.635 46.603c-2.632-6.735-7.28-63.228 3.931-71.567l18.613 18.607 4.69-20.314 22.004 21.765-1.94-20.058c1.628 1.211 3.09 2.584 4.401 4.1l36.768 36.706c8.949 26.072 13.817 54.039 13.817 83.145 0 141.385-114.615 256-256 256-23.809 0-46.854-3.263-68.726-9.344z" fill="#262628"/><circle cx="256" cy="256" fill="#fff" r="145.833"/><path d="m401.83 256c0 80.54-65.29 145.83-145.83 145.83v-291.66c80.54 0 145.83 65.29 145.83 145.83z" fill="#defaf7"/><circle cx="256" cy="256" fill="#b2feff" r="90.504"/><path d="m346.5 256c0 49.98-40.52 90.5-90.5 90.5v-181c49.98 0 90.5 40.52 90.5 90.5z" fill="#4dfaff"/><g><path d="m113.004 174.489c0-26.878-16.268-48.667-36.335-48.667s-36.335 21.789-36.335 48.667c0 20.033 9.039 37.232 21.951 44.697v152.609c0 7.944 6.44 14.384 14.384 14.384s14.384-6.44 14.384-14.384v-152.61c12.911-7.464 21.951-24.664 21.951-44.696z" fill="#fff"/><path d="m457.015 132.049v46.063c0 4.177-3.387 7.564-7.564 7.564-4.178 0-7.564-3.387-7.564-7.564 0 0 .022-48.885-6.556-48.885s-6.556 48.885-6.556 48.885c0 4.177-3.386 7.564-7.564 7.564-4.177 0-7.564-3.387-7.564-7.564v-46.063c-11.211 8.339-14.652 24.214-14.652 42.439 0 20.033 9.039 37.232 21.951 44.697v152.203c0 7.745 5.952 14.41 13.689 14.774 8.26.389 15.079-6.193 15.079-14.368v-152.609c12.911-7.465 21.951-24.664 21.951-44.697.002-18.224-3.439-34.1-14.65-42.439z" fill="#fff"/><path d="m471.67 174.49c0 20.03-9.04 37.23-21.95 44.7v152.6c0 7.95-6.45 14.39-14.39 14.39v-256.95c6.58 0 6.56 48.88 6.56 48.88 0 2.09.85 3.98 2.21 5.35 1.37 1.37 3.26 2.22 5.35 2.22 4.18 0 7.57-3.39 7.57-7.57v-46.06c11.21 8.34 14.65 24.21 14.65 42.44z" fill="#defaf7"/></g><path d="m113 174.49c0 20.03-9.04 37.23-21.95 44.7v152.6c0 7.95-6.44 14.39-14.38 14.39v-260.36c20.07 0 36.33 21.79 36.33 48.67z" fill="#defaf7"/></g></svg>