<svg width="35" height="35" viewBox="0 0 35 35" fill="none" xmlns="http://www.w3.org/2000/svg">
<path d="M23.6832 32.0834C23.2964 32.0834 22.9255 31.9297 22.652 31.6562C22.3785 31.3827 22.2249 31.0118 22.2249 30.625V26.8334C22.2702 26.3972 22.2235 25.9564 22.0879 25.5394C21.9522 25.1225 21.7306 24.7386 21.4374 24.4125C21.2558 24.2156 21.132 23.9725 21.0795 23.7099C21.027 23.4472 21.0478 23.1752 21.1397 22.9236C21.2316 22.6721 21.391 22.4506 21.6004 22.2837C21.8099 22.1167 22.0612 22.0107 22.327 21.9771C25.8853 21.5542 29.1665 20.4167 29.1665 14.248C29.1677 13.096 28.8277 11.9695 28.1895 11.0105C27.6005 10.1276 27.3855 9.04735 27.5915 8.00629C27.723 7.32718 27.723 6.62916 27.5915 5.95004C26.4995 6.31926 25.4714 6.85548 24.5436 7.53962C24.3682 7.66419 24.1674 7.7484 23.9556 7.78622C23.7438 7.82404 23.5263 7.81453 23.3186 7.75837C20.6868 7.01471 17.9004 7.01471 15.2686 7.75837C15.0609 7.81453 14.8434 7.82404 14.6316 7.78622C14.4198 7.7484 14.219 7.66419 14.0436 7.53962C13.1102 6.84756 12.0711 6.31078 10.9665 5.95004C10.8279 6.62844 10.8279 7.32789 10.9665 8.00629C11.1577 9.06045 10.9329 10.1477 10.3395 11.0396C9.70401 12.0054 9.36441 13.1357 9.36237 14.2917C9.36237 19.9646 12.104 21.4813 16.2165 22.0063C16.4856 22.0397 16.7401 22.1474 16.9513 22.3175C17.1626 22.4875 17.3222 22.713 17.4124 22.9688C17.4972 23.2169 17.5135 23.4834 17.4596 23.74C17.4057 23.9967 17.2836 24.234 17.1061 24.4271C16.8225 24.7303 16.6048 25.089 16.4667 25.4806C16.3287 25.8721 16.2733 26.2881 16.304 26.7021V30.625C16.304 31.0118 16.1504 31.3827 15.8769 31.6562C15.6034 31.9297 15.2325 32.0834 14.8457 32.0834C14.4589 32.0834 14.088 31.9297 13.8145 31.6562C13.541 31.3827 13.3874 31.0118 13.3874 30.625V29.7938C11.9544 29.9586 10.5028 29.7666 9.16197 29.2348C7.82111 28.703 6.63251 27.848 5.70196 26.7459C5.22363 26.2157 4.64974 25.7803 4.01029 25.4625C3.82452 25.4147 3.65001 25.3307 3.4967 25.2153C3.3434 25.1 3.21431 24.9556 3.11681 24.7904C3.01931 24.6252 2.9553 24.4424 2.92845 24.2525C2.90159 24.0625 2.91241 23.8691 2.96029 23.6834C3.00817 23.4976 3.09217 23.3231 3.20749 23.1698C3.32281 23.0165 3.4672 22.8874 3.63241 22.7899C3.79762 22.6924 3.98042 22.6284 4.17037 22.6015C4.36031 22.5747 4.55369 22.5855 4.73946 22.6334C5.86128 23.0421 6.86366 23.7237 7.65612 24.6167C9.11446 26.075 10.5728 27.3584 13.3436 26.8334C13.2949 26.0504 13.4091 25.2658 13.679 24.5292C10.6749 23.7709 6.38737 21.6125 6.38737 14.3209C6.38353 12.5937 6.89095 10.904 7.84571 9.46462C8.02304 9.19892 8.09096 8.87502 8.03529 8.56046C7.7406 6.9863 7.90774 5.36049 8.51654 3.87921C8.59926 3.6817 8.72446 3.50483 8.88325 3.36116C9.04204 3.2175 9.23051 3.11056 9.43529 3.04796C9.93112 2.90212 11.7103 2.61046 15.079 4.79796C17.8061 4.14171 20.6499 4.14171 23.377 4.79796C26.7457 2.61046 28.5249 2.88754 29.0061 3.04796C29.2109 3.11056 29.3994 3.2175 29.5582 3.36116C29.717 3.50483 29.8422 3.6817 29.9249 3.87921C30.5349 5.3653 30.702 6.99611 30.4061 8.57504C30.3763 8.71731 30.3751 8.86409 30.4026 9.00682C30.4302 9.14954 30.4859 9.28535 30.5665 9.40629C31.5241 10.8498 32.0316 12.545 32.0249 14.2771C32.0249 21.6709 27.7665 23.8146 24.7332 24.4855C25.0004 25.268 25.1095 26.0958 25.054 26.9209V30.625C25.0547 30.9971 24.9131 31.3554 24.6583 31.6265C24.4034 31.8976 24.0546 32.061 23.6832 32.0834Z" fill="white" fill-opacity="0.4"/>
</svg>
