<?xml version="1.0"?>
<svg xmlns="http://www.w3.org/2000/svg" viewBox="0 0 64 64" width="512" height="512"><g id="Fill_Outline" data-name="Fill Outline"><g id="Color"><g><path d="M54.5,24H9.5l.538-2.827A22.358,22.358,0,0,1,32,3h0A22.358,22.358,0,0,1,53.962,21.173Z" style="fill:#4891d3"/><path d="M51.986,12.137c0-.046.014-.09.014-.137a2.994,2.994,0,0,0-5.708-1.271,3.936,3.936,0,0,0-4.335-.151A3.973,3.973,0,0,0,34.5,9.1a3.976,3.976,0,0,0-7.132.243,2.938,2.938,0,0,0-3.665.748,2.943,2.943,0,0,0-3.413,1.64,3.986,3.986,0,0,0-7.153,1.282c-.046,0-.09-.014-.137-.014a3,3,0,1,0,2.473,4.7A3.982,3.982,0,0,0,17,18a3.979,3.979,0,0,0,6.5,3.1,3.948,3.948,0,0,0,5.974-1.152A3.035,3.035,0,0,0,30,20a2.984,2.984,0,0,0,1.116-.22,2.989,2.989,0,0,0,5.828-.227,3.955,3.955,0,0,0,4.965.957A3.965,3.965,0,0,0,48.766,19.3,3.934,3.934,0,0,0,51,20a3.992,3.992,0,0,0,.986-7.863Z" style="fill:#f9e109"/><path d="M51.986,12.137c0-.046.014-.09.014-.137a2.99,2.99,0,0,0-2.1-2.848A3.943,3.943,0,0,1,50,10a4,4,0,0,1-4,4,3.934,3.934,0,0,1-2.234-.7,3.965,3.965,0,0,1-6.857,1.213,3.955,3.955,0,0,1-4.965-.957,2.989,2.989,0,0,1-5.828.227A2.984,2.984,0,0,1,25,14a3.035,3.035,0,0,1-.526-.053A3.948,3.948,0,0,1,18.5,15.1a3.957,3.957,0,0,1-6.319-1.971A2.993,2.993,0,1,0,15.473,17.7,3.982,3.982,0,0,0,17,18a3.979,3.979,0,0,0,6.5,3.1,3.948,3.948,0,0,0,5.974-1.152A3.035,3.035,0,0,0,30,20a2.984,2.984,0,0,0,1.116-.22,2.989,2.989,0,0,0,5.828-.227,3.955,3.955,0,0,0,4.965.957A3.965,3.965,0,0,0,48.766,19.3,3.934,3.934,0,0,0,51,20a3.992,3.992,0,0,0,.986-7.863Z" style="fill:#fcbc04"/><g><path d="M32,61H23L20.415,23.086A5.7,5.7,0,0,1,26.1,17h.2A5.7,5.7,0,0,1,32,22.7Z" style="fill:#f89c8d"/><path d="M41,61H32V22.7A5.7,5.7,0,0,1,37.7,17h.2a5.7,5.7,0,0,1,5.685,6.086Z" style="fill:#aae1f9"/><path d="M23,61H18.414a4,4,0,0,1-3.95-3.372L9.049,23.594A5.7,5.7,0,0,1,14.677,17h0a5.7,5.7,0,0,1,5.685,5.311Z" style="fill:#aae1f9"/><path d="M45.586,61H41l2.638-38.689A5.7,5.7,0,0,1,49.323,17h0a5.7,5.7,0,0,1,5.628,6.594L49.536,57.628A4,4,0,0,1,45.586,61Z" style="fill:#f89c8d"/><path d="M28.542,17.458A5.687,5.687,0,0,1,29,19.7V53a5,5,0,0,1-5,5H22.8l.2,3h9V22.7A5.7,5.7,0,0,0,28.542,17.458Z" style="fill:#f8664f"/><path d="M40.133,17.458a5.66,5.66,0,0,1,.452,2.628l-2.14,31.39A7,7,0,0,1,32,57.974V61h9l2.585-37.914A5.7,5.7,0,0,0,40.133,17.458Z" style="fill:#57b7eb"/><path d="M20.362,22.311A5.69,5.69,0,0,0,16.9,17.46a5.656,5.656,0,0,1,.464,1.851l2.326,34.118A4.28,4.28,0,0,1,15.418,58h0a3.977,3.977,0,0,1-.884-.11A3.989,3.989,0,0,0,18.414,61H23Z" style="fill:#57b7eb"/><path d="M51.564,17.464a5.662,5.662,0,0,1,.387,3.13L46.536,54.628A4,4,0,0,1,42.586,58H41.205L41,61h4.586a4,4,0,0,0,3.95-3.372l5.415-34.034A5.7,5.7,0,0,0,51.564,17.464Z" style="fill:#f8664f"/><path d="M32,52.886V33.114c-4.631.474-8.523,2.561-10.53,5.445l.663,9.729A15.162,15.162,0,0,0,32,52.886Z" style="fill:#f8664f"/><path d="M34,33a19.576,19.576,0,0,0-2,.114V52.886A19.576,19.576,0,0,0,34,53a18.141,18.141,0,0,0,7.657-1.634l1.1-16.161A17.7,17.7,0,0,0,34,33Z" style="fill:#57b7eb"/><path d="M48,43c0-3.154-2.048-5.962-5.241-7.8l-1.1,16.161C45.474,49.58,48,46.5,48,43Z" style="fill:#f8664f"/></g><ellipse cx="32" cy="42" rx="14" ry="10" style="fill:#c4f236"/><path d="M41.032,34.366A7.525,7.525,0,0,1,42,38c0,5.523-6.268,10-14,10a17.565,17.565,0,0,1-9.032-2.366C21.005,49.358,26.065,52,32,52c7.732,0,14-4.477,14-10C46,38.937,44.068,36.2,41.032,34.366Z" style="fill:#a1d51c"/><path d="M37,40c-.061,0-.119.013-.178.018a2.983,2.983,0,0,0-5.706.2,2.886,2.886,0,0,0-2.135-.03c.006-.064.019-.125.019-.19a2,2,0,1,0-2,2c.065,0,.126-.013.19-.019A2.969,2.969,0,0,0,27,43a3,3,0,0,0,3,3,2.963,2.963,0,0,0,.7-.092A2.988,2.988,0,0,0,36,44a2.822,2.822,0,0,0-.03-.293A2,2,0,1,0,37,40Z" style="fill:#f9e109"/><path d="M37,40c-.061,0-.119.013-.178.018-.014-.039-.034-.074-.049-.111a1.976,1.976,0,0,1-2.8.8A2.822,2.822,0,0,1,34,41a2.988,2.988,0,0,1-5.3,1.908,2.773,2.773,0,0,1-1.686-.086c0,.06-.017.117-.017.178a3,3,0,0,0,3,3,2.963,2.963,0,0,0,.7-.092A2.988,2.988,0,0,0,36,44a2.822,2.822,0,0,0-.03-.293A2,2,0,1,0,37,40Z" style="fill:#fcbc04"/></g></g><g id="Outline_copy" data-name="Outline copy"><g><path d="M54.937,19.051a4.96,4.96,0,0,0-2.7-7.883,1,1,0,0,0-.494,1.937A2.993,2.993,0,0,1,54,16a2.908,2.908,0,0,1-.438,1.514A6.69,6.69,0,0,0,43.615,19.2a6.8,6.8,0,0,0-.85-1.106A6.637,6.637,0,0,0,37.9,16h-.2A6.7,6.7,0,0,0,32,19.2,6.7,6.7,0,0,0,26.3,16h-.2a6.632,6.632,0,0,0-4.865,2.1,6.8,6.8,0,0,0-.849,1.1,6.7,6.7,0,0,0-9.131-2.259A1.94,1.94,0,0,1,11,16a1.994,1.994,0,0,1,1.935-2c.033.005.127.015.16.016a.977.977,0,0,0,1.011-.752,3,3,0,0,1,1.768-2.03l.02-.009a2.906,2.906,0,0,1,3.262.727A3.982,3.982,0,0,0,19,13a1,1,0,0,0,2,0,1.967,1.967,0,0,1,.176-.812c.005-.012.014-.02.02-.032A1.981,1.981,0,0,1,23,11a2.052,2.052,0,0,1,.468.063.994.994,0,0,0,1-.332,1.963,1.963,0,0,1,1.628-.717A5.05,5.05,0,0,0,26,11a1,1,0,0,0,2,0,2.964,2.964,0,0,1,.259-1.214c0-.01.014-.016.018-.025a2.976,2.976,0,0,1,5.345-.182c.011.02.028.034.04.052A2.962,2.962,0,0,1,34,11a1,1,0,0,0,2,0,5.029,5.029,0,0,0-.348-1.833,2.962,2.962,0,0,1,5.2.957,4.812,4.812,0,0,0-.386.342,1,1,0,0,0,1.418,1.412,2.93,2.93,0,0,1,.535-.418c.018-.01.037-.014.055-.024a2.965,2.965,0,0,1,3.247.111c.006,0,.013,0,.019.008a2.962,2.962,0,0,1,.382.322,1,1,0,0,0,1.414,0,.988.988,0,0,0,.082-1.3A1.955,1.955,0,0,1,49,10a1,1,0,0,0,0-2,4.008,4.008,0,0,0-3.033,1.406,4.949,4.949,0,0,0-3.322-.212A4.965,4.965,0,0,0,34.5,7.45a4.967,4.967,0,0,0-7.573.664,3.962,3.962,0,0,0-3.574.9A3.909,3.909,0,0,0,20.2,10.159a5,5,0,0,0-2.064-1.012A21.292,21.292,0,0,1,43.071,7.1,1,1,0,0,0,44.11,5.387,23.308,23.308,0,0,0,14.918,9.461a4.994,4.994,0,0,0-2.506,2.582A4.006,4.006,0,0,0,9,16a3.943,3.943,0,0,0,.705,2.218c-.04.045-.085.085-.124.131a6.689,6.689,0,0,0-1.519,5.4l.982,6.178a1,1,0,0,0,.986.843.927.927,0,0,0,.158-.013,1,1,0,0,0,.832-1.145l-.982-6.177a4.7,4.7,0,1,1,9.324-1.052l.048.709v0c0,.027,0,.054,0,.063l.817,12.025A9.34,9.34,0,0,0,17,42a9.7,9.7,0,0,0,4.222,7.632L21.93,60H18.41a2.987,2.987,0,0,1-2.962-2.527l-3.8-23.91a1,1,0,1,0-1.975.314l3.8,23.911A4.977,4.977,0,0,0,18.41,62H45.59a4.976,4.976,0,0,0,4.937-4.213l2.353-14.8a1,1,0,0,0-1.975-.314L48.553,57.473A3.026,3.026,0,0,1,45.59,60H42.071l.707-10.368A9.7,9.7,0,0,0,47,42a9.27,9.27,0,0,0-3.229-6.83l.816-12.088h0l.051-.7a4.7,4.7,0,1,1,9.325,1.057L51.534,38.716a1,1,0,0,0,.83,1.144.962.962,0,0,0,.158.013,1,1,0,0,0,.987-.843l2.428-15.281a6.684,6.684,0,0,0-1-4.7Zm-32.25.419A4.655,4.655,0,0,1,26.1,18h.2A4.7,4.7,0,0,1,31,22.7v8.338a17.909,17.909,0,0,0-8.865,2.688L21.41,23.09c0-.019,0-.117,0-.136A4.65,4.65,0,0,1,22.687,19.47ZM40.065,60H33V56a1,1,0,0,0-2,0v4H23.934l-.617-9.047a19.437,19.437,0,0,0,17.365,0Zm-.424-27.464a1,1,0,1,0-.8,1.836C42.7,36.042,45,38.894,45,42c0,4.963-5.832,9-13,9s-13-4.037-13-9,5.832-9,13-9a18.558,18.558,0,0,1,3.127.275,1,1,0,0,0,.34-1.97A20.9,20.9,0,0,0,33,31.045V22.7A4.7,4.7,0,0,1,37.7,18h.2a4.651,4.651,0,0,1,3.412,1.47A4.7,4.7,0,0,1,42.591,23v.042l-.725,10.668A16.111,16.111,0,0,0,39.641,32.536Z" style="fill:#39519d"/><path d="M32.56,13.561a1.536,1.536,0,0,1-2.12,0,1,1,0,0,0-1.415,1.414,3.5,3.5,0,0,0,4.95,0,1,1,0,0,0-1.415-1.414Z" style="fill:#39519d"/><path d="M47.561,13.561a1.5,1.5,0,0,1-2.122,0,1,1,0,0,0-1.414,1.414,3.505,3.505,0,0,0,4.95,0,1,1,0,0,0-1.414-1.414Z" style="fill:#39519d"/><path d="M34,37a4,4,0,0,0-3.472,2.036,3.7,3.7,0,0,0-.7-.032A3,3,0,1,0,26,42.83c0,.057,0,.113,0,.17a3.961,3.961,0,0,0,4.353,3.982A3.962,3.962,0,0,0,33,48a4.007,4.007,0,0,0,3.874-3,3,3,0,0,0,.6-5.96A4,4,0,0,0,34,37Zm4,5a1.007,1.007,0,0,1-1.513.851,1,1,0,0,0-1.511.956c0,.011.022.181.024.193a1.988,1.988,0,0,1-3.528,1.269c-.01-.013-.026-.017-.036-.029A1.971,1.971,0,0,1,31,44a1,1,0,0,0-2,0,3.988,3.988,0,0,0,.08.765,1.949,1.949,0,0,1-.95-2.445,1,1,0,0,0-.2-.951A1.071,1.071,0,0,0,27,41a1,1,0,1,1,1-1.013c0,.015-.012.1-.013.111a1,1,0,0,0,1.338,1.031,1.885,1.885,0,0,1,1.421.018.986.986,0,0,0,.818-.033,1,1,0,0,0,.519-.634,1.983,1.983,0,0,1,3.8-.133,1,1,0,0,0,1.026.668l.12-.015A1,1,0,0,1,38,42Z" style="fill:#39519d"/></g></g></g></svg>
