<svg id="Layer_5" enable-background="new 0 0 64 64" height="512" viewBox="0 0 64 64" width="512" xmlns="http://www.w3.org/2000/svg"><path d="m18.09 43.669c1.759-1.273 2.91-3.337 2.91-5.669 0-3.859-3.14-7-7-7s-7 3.141-7 7c0 2.332 1.151 4.396 2.91 5.669-5.168 1.719-8.91 6.593-8.91 12.331v7h26v-7c0-5.738-3.742-10.612-8.91-12.331zm-9.09-5.669c0-2.757 2.243-5 5-5s5 2.243 5 5-2.243 5-5 5-5-2.243-5-5zm1.5 18h-1.5v-4h6v9h-1.338c.216-.455.338-.964.338-1.5 0-1.93-1.57-3.5-3.5-3.5zm14.5 5h-4v-9h-2v9h-2v-11h-10v6h-2v2h5.5c.827 0 1.5.673 1.5 1.5s-.673 1.5-1.5 1.5h-7.5v-5c0-6.065 4.935-11 11-11s11 4.935 11 11z"/><path d="m54.09 43.669c1.759-1.273 2.91-3.337 2.91-5.669 0-3.859-3.14-7-7-7s-7 3.141-7 7c0 2.332 1.151 4.396 2.91 5.669-5.168 1.719-8.91 6.593-8.91 12.331v7h26v-7c0-5.738-3.742-10.612-8.91-12.331zm-9.09-5.669c0-2.757 2.243-5 5-5s5 2.243 5 5-2.243 5-5 5-5-2.243-5-5zm1.5 18h-1.5v-4h6v9h-1.338c.216-.455.338-.964.338-1.5 0-1.93-1.57-3.5-3.5-3.5zm14.5 5h-4v-9h-2v9h-2v-11h-10v6h-2v2h5.5c.827 0 1.5.673 1.5 1.5s-.673 1.5-1.5 1.5h-7.5v-5c0-6.065 4.935-11 11-11s11 4.935 11 11z"/><path d="m38.963 3.822c-1.958-1.899-4.526-2.895-7.271-2.818-5.363.162-9.711 4.662-9.692 10.032.011 3.136 1.456 6.024 3.964 7.926.649.491 1.036 1.31 1.036 2.191v.847c0 2.757 2.243 5 5 5s5-2.243 5-5v-.772c0-.921.43-1.787 1.18-2.377 2.428-1.91 3.82-4.771 3.82-7.851 0-2.729-1.079-5.277-3.037-7.178zm-3.963 18.178c0 1.654-1.346 3-3 3s-3-1.346-3-3v-.847c0-.052-.007-.102-.009-.153h6.022c-.003.076-.013.151-.013.228zm1.944-4.722c-.605.476-1.081 1.065-1.412 1.722h-2.532v-5h-2v5h-2.497c-.314-.641-.766-1.204-1.332-1.632-2.007-1.521-3.163-3.832-3.171-6.34-.015-4.296 3.462-7.896 7.752-8.024.083-.003.166-.004.249-.004 2.093 0 4.062.796 5.569 2.258 1.567 1.52 2.43 3.559 2.43 5.742 0 2.463-1.114 4.751-3.056 6.278z"/><path d="m32 15c-2.206 0-4-1.794-4-4s1.794-4 4-4 4 1.794 4 4-1.794 4-4 4z" fill="#f0bc5e"/><path d="m52.504 23.441c-.95-4.296-3.196-8.129-6.493-11.084l1.335-1.49c3.611 3.237 6.07 7.436 7.111 12.143z"/><path d="m44.885 11.416c-.471-.366-.965-.718-1.47-1.046l1.089-1.678c.553.359 1.094.744 1.61 1.146z"/><path d="m11.496 23.441-1.953-.431c1.042-4.707 3.5-8.905 7.111-12.143l1.335 1.49c-3.297 2.955-5.543 6.789-6.493 11.084z"/><path d="m19.115 11.416-1.229-1.578c.516-.401 1.057-.786 1.61-1.146l1.089 1.678c-.504.328-.999.68-1.47 1.046z"/><path d="m27 33h10v2h-10z"/><g fill="#f0bc5e"><path d="m54 22c-1.654 0-3 1.346-3 3s1.346 3 3 3 3-1.346 3-3-1.346-3-3-3z"/><path d="m10 22c-1.654 0-3 1.346-3 3s1.346 3 3 3 3-1.346 3-3-1.346-3-3-3z"/><path d="m39 31c-1.654 0-3 1.346-3 3s1.346 3 3 3 3-1.346 3-3-1.346-3-3-3z"/><path d="m25 31c-1.654 0-3 1.346-3 3s1.346 3 3 3 3-1.346 3-3-1.346-3-3-3z"/></g></svg>