<svg width="20" height="20" viewBox="0 0 20 20" fill="none" xmlns="http://www.w3.org/2000/svg">
<path fill-rule="evenodd" clip-rule="evenodd" d="M9.4 0.140305C9.4165 0.150805 9.4255 0.160205 9.42 0.161205C9.4145 0.162255 9.392 0.166855 9.37 0.171455C9.348 0.176105 9.2869 0.183305 9.23425 0.187505C9.18155 0.191755 9.12235 0.209755 9.10265 0.227605C9.08295 0.245405 9.03745 0.260005 9.00155 0.260005C8.95445 0.260005 8.9335 0.270505 8.9264 0.297605C8.91915 0.325355 8.8925 0.337905 8.8245 0.345555C8.7734 0.351305 8.722 0.370205 8.709 0.387955C8.69605 0.405705 8.65725 0.420005 8.62215 0.420005C8.585 0.420005 8.5541 0.432105 8.5475 0.449255C8.54135 0.465305 8.51915 0.483955 8.49815 0.490605C8.47715 0.497255 8.46 0.515605 8.46 0.531355C8.46 0.549755 8.4389 0.560005 8.40115 0.560005C8.36525 0.560005 8.3315 0.575405 8.31465 0.599405C8.2991 0.621605 8.2599 0.640905 8.2249 0.643555C8.19075 0.646155 8.1632 0.653205 8.16375 0.659155C8.1681 0.706805 8.1521 0.720005 8.09 0.720005C8.03545 0.720005 8.02 0.728105 8.02 0.756655C8.02 0.776855 8.00875 0.794755 7.995 0.796505C7.90445 0.807855 7.88125 0.815905 7.85085 0.846305C7.8321 0.865055 7.8085 0.875255 7.7984 0.869005C7.78825 0.862755 7.78 0.876155 7.78 0.898805C7.78 0.932555 7.76735 0.940005 7.71 0.940005C7.65335 0.940005 7.64 0.947605 7.64 0.980005C7.64 1.01336 7.62665 1.02001 7.56 1.02001C7.49335 1.02001 7.48 1.02666 7.48 1.06001C7.48 1.09641 7.4282 1.11396 7.355 1.10236C7.34675 1.10106 7.34225 1.11106 7.345 1.12455C7.34775 1.13801 7.32975 1.15216 7.305 1.15591C7.28025 1.15971 7.26 1.17086 7.26 1.18076C7.26 1.19066 7.2466 1.19361 7.23015 1.18731C7.21315 1.18076 7.19505 1.18961 7.18805 1.20791C7.18125 1.22556 7.1587 1.24001 7.13785 1.24001C7.11705 1.24001 7.10105 1.24676 7.10235 1.25501C7.11 1.30341 7.09365 1.32001 7.03815 1.32001C6.9931 1.32001 6.9734 1.33086 6.9658 1.36001C6.95755 1.39156 6.9385 1.40001 6.87555 1.40001C6.8128 1.40001 6.7982 1.40641 6.80725 1.43001C6.8146 1.44916 6.8063 1.46086 6.78435 1.46231C6.76545 1.46361 6.741 1.46671 6.73 1.46926C6.719 1.47181 6.6982 1.47531 6.6838 1.47696C6.6694 1.47866 6.66275 1.48831 6.66905 1.49846C6.6753 1.50856 6.65315 1.53046 6.61985 1.54706C6.58655 1.56371 6.56445 1.56901 6.5707 1.55886C6.57695 1.54876 6.5676 1.54601 6.5499 1.55281C6.5322 1.55961 6.5222 1.57696 6.52775 1.59136C6.5342 1.60821 6.5186 1.61976 6.4839 1.62381C6.4469 1.62806 6.43085 1.64096 6.4328 1.66501C6.4349 1.69205 6.42 1.70001 6.36715 1.70001C6.3248 1.70001 6.29435 1.71141 6.28725 1.73001C6.28085 1.74671 6.2511 1.76001 6.2203 1.76001C6.18675 1.76001 6.15405 1.77616 6.13745 1.80096C6.12185 1.82416 6.08405 1.84401 6.05 1.84681C6.0059 1.85041 5.99155 1.86076 5.9959 1.88586C6.0001 1.91041 5.9879 1.92001 5.9525 1.92001C5.88265 1.92001 5.84 1.93976 5.84 1.97216C5.84 1.98746 5.822 2.00001 5.8 2.00001C5.7778 2.00001 5.76 2.01336 5.76 2.03001C5.76 2.05936 5.72695 2.06961 5.65315 2.06311C5.6314 2.06116 5.612 2.07621 5.6058 2.09991C5.5964 2.13601 5.56365 2.14831 5.485 2.14536C5.47125 2.14486 5.46 2.16146 5.46 2.18221C5.46 2.21226 5.44525 2.22001 5.38815 2.22001C5.3331 2.22001 5.3138 2.22936 5.3058 2.26001C5.2983 2.28871 5.2785 2.30001 5.2358 2.30001C5.1938 2.30001 5.1733 2.31136 5.16615 2.33861C5.15995 2.36246 5.14485 2.37296 5.12685 2.36601C5.10855 2.35901 5.09365 2.36991 5.08705 2.39511C5.07955 2.42381 5.05365 2.43911 4.9973 2.44811C4.95375 2.45506 4.9232 2.46901 4.9294 2.47901C4.9447 2.50376 4.91745 2.51806 4.84415 2.52361C4.8104 2.52621 4.78605 2.53361 4.79005 2.54011C4.80675 2.56716 4.76425 2.59906 4.7056 2.60351C4.67105 2.60616 4.6472 2.61546 4.65255 2.62416C4.65795 2.63286 4.6523 2.64001 4.64 2.64001C4.6277 2.64001 4.62405 2.65041 4.6319 2.66311C4.64105 2.67791 4.63735 2.68076 4.6216 2.67101C4.6071 2.66206 4.57715 2.67451 4.5485 2.70141C4.52185 2.72646 4.5 2.73716 4.5 2.72516C4.5 2.71316 4.51125 2.69881 4.525 2.69326C4.5446 2.68536 4.54445 2.68281 4.52435 2.68161C4.5103 2.68071 4.49355 2.69351 4.48725 2.71001C4.4809 2.72651 4.4587 2.74001 4.43785 2.74001C4.41335 2.74001 4.4 2.75411 4.4 2.78001C4.4 2.81096 4.38665 2.82001 4.34115 2.82001C4.30525 2.82001 4.2715 2.83541 4.25465 2.85941C4.2391 2.88161 4.1999 2.90091 4.1649 2.90356C4.13075 2.90616 4.10605 2.91361 4.11005 2.92011C4.12675 2.94716 4.08425 2.97906 4.0256 2.98351C3.99105 2.98616 3.9644 2.99676 3.9664 3.00706C3.96835 3.01736 3.9385 3.03426 3.9 3.04466C3.8615 3.05506 3.8228 3.07626 3.814 3.09181C3.8052 3.10731 3.78045 3.12001 3.759 3.12001C3.73335 3.12001 3.72 3.13366 3.72 3.16001C3.72 3.19141 3.70665 3.20001 3.65815 3.20001C3.6131 3.20001 3.5934 3.21086 3.5858 3.24001C3.57755 3.27156 3.5585 3.28001 3.49555 3.28001C3.4328 3.28001 3.4182 3.28641 3.42725 3.31C3.43585 3.3325 3.42395 3.34001 3.37935 3.34001C3.3467 3.34001 3.32 3.34956 3.32 3.3612C3.32 3.37285 3.3108 3.37665 3.2995 3.3697C3.28825 3.36275 3.2815 3.3686 3.2845 3.38276C3.2877 3.39775 3.2587 3.41651 3.215 3.42776C3.17375 3.43835 3.14 3.45896 3.14 3.47356C3.14 3.48846 3.11815 3.50001 3.09 3.50001C3.0625 3.50001 3.04105 3.50676 3.04235 3.51501C3.0499 3.56276 3.03365 3.58 2.981 3.58C2.94855 3.58 2.9142 3.59391 2.9047 3.61091C2.89515 3.62791 2.86095 3.64491 2.8287 3.64865C2.7964 3.65241 2.76325 3.65646 2.755 3.65771C2.74675 3.65896 2.74 3.67351 2.74 3.69001C2.74 3.70651 2.72425 3.72106 2.705 3.72231C2.68575 3.7236 2.6565 3.72585 2.64 3.7273C2.6235 3.7288 2.61125 3.74576 2.6128 3.76501C2.6147 3.78936 2.601 3.8 2.5678 3.8C2.5415 3.8 2.502 3.81801 2.48 3.84001C2.458 3.86201 2.4262 3.88 2.40935 3.88C2.39255 3.88 2.37355 3.8935 2.36725 3.91C2.3609 3.9265 2.3392 3.94001 2.31905 3.94001C2.29885 3.94001 2.2767 3.94916 2.2698 3.96036C2.2629 3.97151 2.24735 3.97456 2.2352 3.96706C2.22105 3.95831 2.21775 3.96531 2.22595 3.98671C2.23575 4.01221 2.2272 4.02 2.18935 4.02C2.15335 4.02 2.14 4.0308 2.14 4.06C2.14 4.0964 2.0882 4.11395 2.015 4.10235C2.00675 4.10105 2 4.11801 2 4.14001C2 4.16666 1.98665 4.18001 1.96 4.18001C1.938 4.18001 1.92 4.1929 1.92 4.20865C1.92 4.2244 1.902 4.243 1.88 4.25001C1.858 4.25701 1.84 4.27501 1.84 4.29001C1.84 4.30501 1.82185 4.32305 1.7997 4.3301C1.77755 4.33715 1.76495 4.35185 1.7717 4.3628C1.7785 4.37375 1.7651 4.38766 1.742 4.3937C1.7181 4.39996 1.7 4.42091 1.7 4.44236C1.7 4.46591 1.6859 4.48 1.66235 4.48C1.6415 4.48 1.62 4.49786 1.6142 4.52001C1.60845 4.54201 1.59045 4.56 1.5742 4.56C1.55795 4.56 1.5399 4.57826 1.53405 4.60055C1.5282 4.62291 1.5114 4.63866 1.4967 4.63555C1.48175 4.63245 1.4712 4.64541 1.4728 4.66501C1.4743 4.68426 1.467 4.70001 1.4566 4.70001C1.44615 4.70001 1.4428 4.70841 1.44915 4.71861C1.45545 4.72886 1.4501 4.74375 1.43725 4.7517C1.4226 4.76076 1.4192 4.7575 1.4281 4.7431C1.43595 4.7304 1.43285 4.72001 1.4212 4.72001C1.40955 4.72001 1.4 4.75151 1.4 4.79001C1.4 4.84666 1.3924 4.86 1.36 4.86C1.338 4.86 1.32 4.87181 1.32 4.88621C1.32 4.90056 1.30585 4.92981 1.2885 4.95121C1.2712 4.97256 1.2636 4.97736 1.2716 4.96191C1.2812 4.94345 1.27825 4.9387 1.2631 4.9481C1.2504 4.95596 1.24 4.98966 1.24 5.02306C1.24 5.06691 1.2289 5.08666 1.2 5.09421C1.1721 5.10151 1.16 5.12151 1.16 5.16021C1.16 5.19111 1.1467 5.22081 1.13 5.22725C1.1104 5.23476 1.1 5.26591 1.1 5.31716C1.1 5.37956 1.09285 5.39501 1.065 5.39281C1.02845 5.3899 1.02605 5.39771 1.0223 5.5328C1.02045 5.59856 1.0128 5.61501 0.985004 5.6128C0.954904 5.6104 0.949204 5.63161 0.944204 5.76405C0.939154 5.89661 0.933804 5.91636 0.905904 5.90565C0.884254 5.89736 0.878254 5.90101 0.887904 5.9166C0.895854 5.92946 0.892754 5.94001 0.881054 5.94001C0.866004 5.94001 0.861254 7.11661 0.864854 9.93501C0.868754 12.9626 0.875654 13.93 0.893354 13.93C0.931954 13.93 0.936704 13.9448 0.943004 14.084C0.947854 14.1922 0.955754 14.2195 0.984504 14.227C1.0109 14.2339 1.02 14.2564 1.02 14.3151C1.02 14.3684 1.0329 14.4055 1.06 14.43C1.087 14.4544 1.1 14.4916 1.1 14.5443C1.1 14.5917 1.10795 14.6175 1.12015 14.6099C1.14195 14.5965 1.18145 14.6796 1.1658 14.7061C1.1606 14.7149 1.1744 14.7378 1.19645 14.7569C1.2185 14.7761 1.23955 14.8183 1.24325 14.8509C1.24805 14.8927 1.26025 14.9092 1.285 14.9072C1.30935 14.9053 1.32 14.919 1.32 14.9522C1.32 14.9867 1.33115 15 1.36 15C1.3912 15 1.4 15.0134 1.4 15.0607C1.4 15.0961 1.41245 15.1261 1.43 15.1328C1.4465 15.1391 1.46 15.1562 1.46 15.1708C1.46 15.1854 1.478 15.203 1.5 15.21C1.53635 15.2216 1.5489 15.2438 1.54235 15.285C1.54105 15.2933 1.558 15.3 1.58 15.3C1.60665 15.3 1.62 15.3134 1.62 15.34C1.62 15.362 1.62675 15.379 1.635 15.3777C1.6769 15.371 1.7 15.3832 1.7 15.4119C1.7 15.4294 1.7174 15.4483 1.7386 15.4539C1.7616 15.4599 1.77285 15.4753 1.7665 15.492C1.75935 15.5106 1.76995 15.52 1.79785 15.52C1.83555 15.52 1.84945 15.5403 1.84235 15.585C1.84105 15.5933 1.8574 15.6 1.87865 15.6C1.9002 15.6 1.92315 15.6184 1.9305 15.6415C1.9377 15.6644 1.94875 15.6779 1.955 15.6717C1.9718 15.6549 2.02135 15.7016 2.0086 15.7223C2.00255 15.732 2.026 15.74 2.0607 15.74C2.1063 15.74 2.12655 15.7508 2.1339 15.7789C2.1395 15.8003 2.1634 15.8205 2.18705 15.8239C2.21065 15.8273 2.23 15.8435 2.23 15.86C2.23 15.8892 2.2373 15.8923 2.31865 15.8975C2.3399 15.8989 2.363 15.918 2.37 15.94C2.377 15.962 2.3956 15.98 2.41135 15.98C2.4271 15.98 2.4578 15.9978 2.47955 16.0196C2.50225 16.0423 2.53255 16.0539 2.55075 16.047C2.57215 16.0388 2.586 16.0487 2.5936 16.0777C2.5998 16.1014 2.615 16.1195 2.6274 16.118C2.69625 16.1098 2.7364 16.124 2.7458 16.16C2.7538 16.1907 2.7731 16.2 2.82815 16.2C2.88665 16.2 2.9 16.2074 2.9 16.24C2.9 16.262 2.90675 16.279 2.915 16.2777C2.982 16.2671 3.03885 16.2849 3.05 16.32C3.057 16.342 3.07915 16.36 3.0992 16.36C3.1193 16.36 3.14065 16.3729 3.1467 16.3887C3.15275 16.4044 3.18745 16.4202 3.22385 16.4237C3.2698 16.4281 3.2893 16.4398 3.2877 16.4621C3.2861 16.4844 3.30335 16.4946 3.34475 16.4958C3.4089 16.4976 3.43 16.5102 3.43 16.5467C3.43 16.5702 3.43895 16.573 3.53 16.5775C3.5662 16.5793 3.58 16.5913 3.58 16.6209C3.58 16.6434 3.59125 16.6603 3.605 16.6585C3.6726 16.6498 3.72 16.6627 3.72 16.69C3.72 16.7065 3.7377 16.72 3.7593 16.72C3.7809 16.72 3.80825 16.738 3.82 16.76C3.834 16.7862 3.8619 16.8 3.9007 16.8C3.9471 16.8 3.96 16.8089 3.96 16.8409C3.96 16.8634 3.97125 16.8803 3.985 16.8785C4.0553 16.8694 4.0985 16.8837 4.11 16.92C4.11875 16.9476 4.14025 16.96 4.1792 16.96C4.211 16.96 4.24075 16.9732 4.24725 16.99C4.25445 17.0089 4.28505 17.02 4.32935 17.02C4.37945 17.02 4.4 17.0289 4.4 17.0507C4.4 17.0675 4.41575 17.0872 4.435 17.0943C4.45425 17.1015 4.48175 17.1237 4.49615 17.1437C4.5105 17.1637 4.5421 17.18 4.5663 17.18C4.59055 17.18 4.6216 17.198 4.63535 17.22C4.6513 17.2455 4.682 17.26 4.72015 17.26C4.76 17.26 4.78 17.27 4.78 17.29C4.78 17.3168 4.81735 17.3283 4.895 17.3254C4.90875 17.3249 4.92 17.3415 4.92 17.3622C4.92 17.393 4.9349 17.4 5 17.4C5.0585 17.4 5.08 17.4083 5.08 17.4307C5.08 17.4475 5.09505 17.4671 5.11345 17.4741C5.1319 17.4812 5.1634 17.5034 5.18345 17.5235C5.20355 17.5436 5.24305 17.56 5.2712 17.56C5.30025 17.56 5.317 17.5687 5.31 17.5801C5.29515 17.6041 5.3957 17.646 5.43345 17.6315C5.45 17.6251 5.46 17.6361 5.46 17.6607C5.46 17.6923 5.4737 17.7 5.53 17.7C5.5936 17.7 5.61025 17.715 5.60235 17.765C5.60105 17.7733 5.636 17.78 5.68 17.78C5.74665 17.78 5.76 17.7867 5.76 17.82C5.76 17.8438 5.77335 17.86 5.7928 17.86C5.81085 17.86 5.8356 17.8734 5.8478 17.8897C5.86645 17.9145 5.91285 17.9311 5.98435 17.9385C5.9923 17.9394 5.9934 17.9539 5.9869 17.9708C5.9804 17.9878 5.98295 18.0002 5.99255 17.9985C6.0591 17.9863 6.1187 18.0043 6.13 18.04C6.13945 18.0698 6.16025 18.08 6.21135 18.08C6.26665 18.08 6.28 18.0878 6.28 18.12C6.28 18.142 6.28675 18.159 6.295 18.1577C6.3727 18.1454 6.4412 18.1634 6.4359 18.1947C6.4318 18.2187 6.4442 18.2302 6.47635 18.232C6.5018 18.2335 6.5333 18.2462 6.54635 18.2603C6.56465 18.2801 6.56435 18.2827 6.545 18.2718C6.53125 18.264 6.52 18.2672 6.52 18.2788C6.52 18.2905 6.5515 18.3 6.59 18.3C6.6453 18.3 6.66 18.308 6.66 18.3378C6.66 18.3586 6.67125 18.3752 6.685 18.3747C6.764 18.3717 6.7964 18.384 6.80595 18.4206C6.8118 18.4429 6.8241 18.4598 6.8333 18.4582C6.90285 18.446 6.96 18.4635 6.96 18.497C6.96 18.5248 6.97575 18.5344 7.0235 18.5357C7.05875 18.5367 7.0948 18.5515 7.1045 18.5688C7.1141 18.586 7.13445 18.6 7.14965 18.6C7.16485 18.6 7.183 18.618 7.19 18.64C7.19945 18.6698 7.22025 18.68 7.27135 18.68C7.32595 18.68 7.34 18.688 7.34 18.7188C7.34 18.7492 7.35625 18.759 7.415 18.7638C7.46555 18.768 7.49 18.7798 7.49 18.8C7.49 18.8165 7.5035 18.8309 7.52 18.832C7.5365 18.833 7.57025 18.8353 7.595 18.837C7.6203 18.8387 7.64 18.8531 7.64 18.87C7.64 18.891 7.6611 18.9 7.71 18.9C7.75955 18.9 7.78 18.909 7.78 18.9307C7.78 18.9475 7.79575 18.9672 7.815 18.9743C7.83425 18.9815 7.86175 19.0037 7.87615 19.0237C7.8908 19.0441 7.9271 19.06 7.9588 19.06C7.9991 19.06 8.01845 19.0719 8.0261 19.1013C8.03205 19.1239 8.04885 19.1409 8.06345 19.1389C8.12485 19.1306 8.16 19.1419 8.16 19.17C8.16 19.1887 8.1789 19.2 8.2102 19.2C8.2378 19.2 8.2758 19.218 8.29465 19.24C8.31595 19.2649 8.35365 19.28 8.39445 19.28C8.44 19.28 8.46 19.2894 8.46 19.3107C8.46 19.3275 8.47575 19.3472 8.495 19.3544C8.51425 19.3616 8.5419 19.3816 8.5565 19.3988C8.5784 19.4247 8.58075 19.4249 8.57 19.4C8.55845 19.3734 8.56 19.3734 8.5835 19.4C8.5981 19.4165 8.6276 19.4331 8.64915 19.4369C8.67065 19.4406 8.6978 19.4567 8.70945 19.4727C8.72115 19.4886 8.76655 19.5049 8.81035 19.5088C8.85415 19.5128 8.89676 19.5169 8.905 19.518C8.91325 19.5191 8.92 19.5335 8.92 19.55C8.92 19.5712 8.9414 19.58 8.9928 19.58C9.03745 19.58 9.07495 19.5928 9.0898 19.6131C9.1058 19.635 9.15401 19.6496 9.2319 19.656C9.30445 19.662 9.3583 19.6774 9.37185 19.696C9.3853 19.7143 9.40415 19.7198 9.42005 19.71C9.4369 19.6996 9.44135 19.7017 9.43255 19.7159C9.40595 19.7589 10.6987 19.7486 10.734 19.7055C10.7499 19.686 10.7573 19.6813 10.7503 19.695C10.7434 19.7088 10.7472 19.72 10.7588 19.72C10.7705 19.72 10.78 19.7065 10.78 19.69C10.78 19.6668 10.8063 19.66 10.8969 19.66C10.9884 19.66 11.0217 19.6513 11.05 19.62C11.0723 19.5954 11.1116 19.58 11.1521 19.58C11.1922 19.58 11.2252 19.5673 11.2363 19.5475C11.2468 19.5286 11.2859 19.5124 11.329 19.509C11.37 19.5057 11.4192 19.4889 11.4383 19.4715C11.4575 19.4542 11.4882 19.44 11.5066 19.44C11.525 19.44 11.54 19.4313 11.54 19.4207C11.54 19.41 11.5551 19.4071 11.5735 19.4141C11.5989 19.4239 11.6039 19.4189 11.5941 19.3935C11.5844 19.368 11.5926 19.36 11.6283 19.36C11.6585 19.36 11.6791 19.3457 11.6858 19.32C11.6938 19.2894 11.7131 19.28 11.7682 19.28C11.8177 19.28 11.84 19.271 11.84 19.2509C11.84 19.2335 11.8682 19.2166 11.9103 19.2087C11.949 19.2014 11.9872 19.1838 11.9953 19.1695C12.0034 19.1552 12.037 19.1405 12.07 19.1368C12.103 19.1331 12.13 19.1186 12.13 19.1047C12.13 19.0908 12.1551 19.0665 12.1857 19.0506C12.2163 19.0347 12.2353 19.0315 12.2279 19.0435C12.22 19.0563 12.2258 19.0613 12.2422 19.0555C12.2575 19.0502 12.2674 19.0311 12.2641 19.013C12.26 18.9895 12.2729 18.98 12.3091 18.98C12.3467 18.98 12.36 18.9695 12.36 18.94C12.36 18.9067 12.3734 18.9 12.44 18.9C12.4978 18.9 12.52 18.8917 12.52 18.87C12.52 18.8491 12.5411 18.84 12.59 18.84C12.6467 18.84 12.66 18.8324 12.66 18.8C12.66 18.7728 12.6744 18.7591 12.705 18.757C12.7298 18.7553 12.7635 18.7528 12.78 18.7515C12.7965 18.7501 12.8088 18.7335 12.8072 18.7145C12.8055 18.6924 12.8198 18.6792 12.8472 18.6777C12.9413 18.6726 12.9498 18.6689 12.9441 18.635C12.9398 18.6093 12.9518 18.6 12.9891 18.6C13.021 18.6 13.04 18.5888 13.04 18.57C13.04 18.5529 13.0594 18.539 13.085 18.5377C13.1796 18.5329 13.1899 18.5292 13.19 18.5C13.19 18.4798 13.2145 18.468 13.265 18.4638C13.3238 18.459 13.34 18.4492 13.34 18.4188C13.34 18.3914 13.3547 18.3793 13.39 18.3775C13.4817 18.3729 13.49 18.3693 13.4872 18.3345C13.4847 18.3024 13.523 18.2894 13.594 18.2983C13.6072 18.2999 13.6279 18.2828 13.64 18.2601C13.6521 18.2374 13.6712 18.2246 13.6824 18.2315C13.6936 18.2384 13.7077 18.2251 13.7137 18.202C13.7221 18.17 13.7405 18.16 13.791 18.16C13.8398 18.16 13.8607 18.1494 13.87 18.12C13.8813 18.0846 13.9399 18.0666 14.0065 18.0782C14.0156 18.0797 14.0184 18.0736 14.0128 18.0646C13.9935 18.0333 14.0318 18.0013 14.0944 17.9965C14.129 17.9939 14.1532 17.9852 14.1483 17.9773C14.1434 17.9693 14.1508 17.9557 14.1647 17.9469C14.1901 17.9311 14.1998 17.9288 14.265 17.9231C14.2843 17.9214 14.3 17.9105 14.3 17.8988C14.3 17.8872 14.2888 17.8841 14.275 17.8921C14.2605 17.9004 14.257 17.8988 14.2667 17.8882C14.284 17.8693 14.2935 17.8667 14.36 17.8625C14.3859 17.8609 14.4 17.8459 14.4 17.82C14.4 17.7886 14.4134 17.78 14.4619 17.78C14.5069 17.78 14.5266 17.7692 14.5342 17.74C14.5424 17.7087 14.5615 17.7 14.6224 17.7C14.6836 17.7 14.7 17.6925 14.7 17.6643C14.7 17.6432 14.7164 17.627 14.74 17.6248C14.826 17.6166 14.8379 17.6128 14.8279 17.5966C14.8222 17.5873 14.8338 17.574 14.8538 17.5669C14.8737 17.5598 14.911 17.5352 14.9366 17.512C14.9623 17.4889 14.987 17.4723 14.9916 17.475C15.0113 17.4867 15.0798 17.4787 15.0777 17.465C15.0701 17.4169 15.0864 17.4 15.1407 17.4C15.1762 17.4 15.2061 17.3876 15.2128 17.3699C15.2192 17.3534 15.2594 17.3342 15.3022 17.3274C15.3488 17.3199 15.38 17.3039 15.38 17.2875C15.38 17.2715 15.401 17.26 15.43 17.26C15.4575 17.26 15.48 17.2505 15.48 17.2388C15.48 17.2272 15.4892 17.2234 15.5005 17.2303C15.5118 17.2373 15.5185 17.2316 15.5155 17.2176C15.5125 17.2037 15.5335 17.1872 15.5621 17.1811C15.5969 17.1737 15.6125 17.1586 15.609 17.1356C15.6061 17.1167 15.6097 17.1021 15.6169 17.103C15.6892 17.1126 15.745 17.0952 15.7542 17.06C15.7616 17.0319 15.7815 17.02 15.8214 17.02C15.8525 17.02 15.8853 17.0071 15.8941 16.9914C15.9029 16.9756 15.936 16.9593 15.9677 16.955C15.9993 16.9508 16.0357 16.9329 16.0486 16.9154C16.0614 16.8978 16.0985 16.8804 16.131 16.8767C16.1742 16.8718 16.1885 16.8607 16.1841 16.835C16.1799 16.8096 16.1917 16.8 16.2275 16.8C16.2974 16.8 16.34 16.7803 16.34 16.7479C16.34 16.7326 16.358 16.72 16.38 16.72C16.4022 16.72 16.42 16.7067 16.42 16.69C16.42 16.6624 16.4681 16.6496 16.5366 16.6589C16.5512 16.6609 16.568 16.6439 16.5739 16.6213C16.5838 16.5835 16.624 16.5693 16.695 16.5785C16.7088 16.5803 16.72 16.5634 16.72 16.5409C16.72 16.5018 16.7578 16.4882 16.8366 16.4989C16.8512 16.5009 16.868 16.4839 16.8739 16.4613C16.8839 16.4232 16.9131 16.4107 16.974 16.4183C16.9872 16.4199 17.0081 16.4023 17.0205 16.3791C17.0335 16.3548 17.0552 16.3416 17.0716 16.3478C17.0901 16.3549 17.1 16.3454 17.1 16.3206C17.1 16.2909 17.1167 16.2811 17.175 16.2762C17.2163 16.2728 17.25 16.2595 17.25 16.2467C17.25 16.2113 17.2663 16.2017 17.3347 16.1965C17.3691 16.1939 17.3968 16.1868 17.3963 16.1809C17.3919 16.133 17.4079 16.12 17.4712 16.12C17.5104 16.12 17.5373 16.1118 17.531 16.1016C17.5248 16.0915 17.5505 16.0731 17.5882 16.0606C17.626 16.0482 17.6676 16.0249 17.6809 16.009C17.6941 15.9931 17.7218 15.98 17.7425 15.98C17.7667 15.98 17.78 15.9658 17.78 15.94C17.78 15.9021 17.818 15.8885 17.8953 15.8986C17.9093 15.9004 17.9183 15.8906 17.9153 15.8767C17.9124 15.8628 17.9303 15.8423 17.955 15.831C17.9798 15.8198 18 15.8003 18 15.7878C18 15.7675 18.1065 15.7305 18.145 15.7373C18.1533 15.7388 18.16 15.7223 18.16 15.7007C18.16 15.675 18.1698 15.665 18.1882 15.6721C18.2049 15.6785 18.2215 15.6668 18.229 15.6433C18.2359 15.6215 18.2547 15.5987 18.2708 15.5925C18.2869 15.5863 18.3 15.5675 18.3 15.5507C18.3 15.5334 18.3174 15.52 18.34 15.52C18.362 15.52 18.38 15.5071 18.38 15.4914C18.38 15.4756 18.398 15.457 18.42 15.45C18.442 15.443 18.46 15.4255 18.46 15.411C18.46 15.3965 18.4789 15.3797 18.502 15.3737C18.5269 15.3672 18.5383 15.3534 18.53 15.34C18.5217 15.3266 18.5332 15.3128 18.558 15.3063C18.5819 15.3001 18.6 15.2791 18.6 15.2577C18.6 15.2334 18.6142 15.22 18.64 15.22C18.6667 15.22 18.68 15.2067 18.68 15.18C18.68 15.158 18.6926 15.14 18.7079 15.14C18.738 15.14 18.76 15.0981 18.76 15.0407C18.76 15.0209 18.7789 14.9997 18.802 14.9937C18.8251 14.9877 18.8389 14.9744 18.8327 14.9643C18.8264 14.9542 18.8352 14.9288 18.8521 14.908C18.8691 14.8871 18.8764 14.8835 18.8683 14.9C18.8598 14.9174 18.8612 14.9231 18.8716 14.9136C18.8814 14.9046 18.8905 14.8866 18.8917 14.8736C18.8929 14.8606 18.8953 14.8343 18.897 14.815C18.8987 14.7958 18.9134 14.78 18.9298 14.78C18.949 14.78 18.9641 14.7518 18.9723 14.7C18.9817 14.6418 18.9947 14.62 19.0204 14.62C19.0397 14.62 19.0552 14.6088 19.0547 14.595C19.0505 14.4822 19.0618 14.4364 19.0911 14.4477C19.1089 14.4545 19.1169 14.4511 19.1099 14.4398C19.1032 14.4289 19.1057 14.42 19.1156 14.42C19.1254 14.42 19.1349 14.3832 19.1367 14.3382C19.1401 14.2511 19.1538 14.2138 19.1772 14.2283C19.1947 14.2391 19.2071 14.1624 19.2086 14.035C19.2096 13.9488 19.2202 13.9306 19.2649 13.9376C19.306 13.9441 19.2812 5.91655 19.2401 5.90581C19.2098 5.8979 19.2032 5.88425 19.2123 5.84805C19.2263 5.79241 19.1842 5.60001 19.158 5.60001C19.1481 5.60001 19.14 5.56615 19.14 5.52481C19.14 5.47131 19.1285 5.44245 19.1 5.42465C19.0711 5.40655 19.06 5.37801 19.06 5.32121C19.06 5.26026 19.0511 5.23985 19.02 5.23C18.9846 5.21875 18.9666 5.16011 18.9782 5.09351C18.9797 5.08446 18.9736 5.08161 18.9646 5.08721C18.9333 5.10651 18.8989 5.06676 18.8945 5.00606C18.8915 4.9657 18.8813 4.9485 18.8642 4.95505C18.85 4.96045 18.8398 4.95706 18.8416 4.94745C18.8516 4.89265 18.8361 4.86 18.8 4.86C18.7695 4.86 18.76 4.84665 18.76 4.80361C18.76 4.7684 18.7413 4.73091 18.71 4.70375C18.6825 4.67985 18.66 4.65121 18.66 4.64016C18.66 4.62906 18.6465 4.62001 18.63 4.62001C18.6135 4.62001 18.6 4.60746 18.6 4.59215C18.6 4.57681 18.5865 4.5591 18.57 4.55275C18.5535 4.54645 18.54 4.52745 18.54 4.51065C18.54 4.4938 18.5231 4.48 18.5024 4.48C18.4815 4.48 18.46 4.46216 18.4542 4.44001C18.4485 4.418 18.4294 4.4 18.4119 4.4C18.3934 4.4 18.38 4.38326 18.38 4.36C18.38 4.33335 18.3667 4.32 18.34 4.32C18.318 4.32 18.3 4.30906 18.3 4.29566C18.3 4.27066 18.2054 4.18001 18.1792 4.18001C18.1712 4.18001 18.1599 4.16176 18.1541 4.13946C18.1482 4.11711 18.1359 4.10021 18.1267 4.10181C18.0542 4.11456 18 4.0967 18 4.06C18 4.03335 17.9867 4.02 17.96 4.02C17.938 4.02 17.92 4.00691 17.92 3.99091C17.92 3.97361 17.8922 3.9566 17.8514 3.94895C17.8137 3.94185 17.778 3.92346 17.772 3.90806C17.7661 3.89261 17.7495 3.88 17.7351 3.88C17.7207 3.88 17.6935 3.86201 17.6747 3.84001C17.6558 3.81801 17.6245 3.8 17.605 3.8C17.5856 3.8 17.5584 3.782 17.5447 3.76C17.5291 3.73505 17.498 3.72001 17.4622 3.72001C17.4215 3.72001 17.4016 3.7083 17.3942 3.68C17.3866 3.65085 17.3669 3.64001 17.3219 3.64001C17.2802 3.64001 17.26 3.6302 17.26 3.61C17.26 3.58835 17.2378 3.58 17.18 3.58C17.1215 3.58 17.1 3.57175 17.1 3.54936C17.1 3.53256 17.085 3.51295 17.0666 3.5059C17.0481 3.49885 17.0166 3.4766 16.9966 3.45655C16.9765 3.43645 16.937 3.42001 16.9088 3.42001C16.8807 3.42001 16.8629 3.41145 16.8694 3.401C16.8839 3.3776 16.8173 3.34001 16.7613 3.34001C16.7379 3.34001 16.72 3.32701 16.72 3.31C16.72 3.28906 16.6989 3.28001 16.65 3.28001C16.5864 3.28001 16.5698 3.26506 16.5777 3.21501C16.579 3.20676 16.544 3.20001 16.5 3.20001C16.4334 3.20001 16.42 3.19336 16.42 3.16001C16.42 3.13781 16.4067 3.12001 16.39 3.12001C16.3735 3.12001 16.342 3.10201 16.32 3.08001C16.298 3.05801 16.2578 3.04001 16.2307 3.04001C16.1939 3.04001 16.1844 3.03191 16.1934 3.00851C16.201 2.98851 16.1953 2.97841 16.1777 2.98086C16.1057 2.99096 16.0617 2.97686 16.05 2.94001C16.0406 2.91026 16.0198 2.90001 15.9687 2.90001C15.9134 2.90001 15.9 2.89226 15.9 2.86001C15.9 2.82686 15.8867 2.82001 15.8222 2.82001C15.7616 2.82001 15.7451 2.81261 15.7472 2.78631C15.7491 2.76341 15.7289 2.74811 15.684 2.73861C15.6477 2.73096 15.6117 2.71766 15.604 2.70916C15.5963 2.70061 15.6062 2.69946 15.6261 2.70661C15.6459 2.71371 15.6572 2.71166 15.6513 2.70206C15.6453 2.69241 15.6081 2.67846 15.5686 2.67106C15.5208 2.66211 15.5001 2.64876 15.5068 2.63126C15.5123 2.61681 15.5063 2.60526 15.4934 2.60566C15.4051 2.60816 15.3591 2.59766 15.3714 2.57776C15.3896 2.54831 15.3433 2.5207 15.275 2.52031C15.2357 2.52011 15.22 2.50986 15.22 2.48426C15.22 2.45846 15.2024 2.44716 15.1565 2.44366C15.1194 2.44086 15.0811 2.42191 15.0644 2.39806C15.0487 2.37566 15.0242 2.36181 15.0099 2.36726C14.9956 2.37276 14.9794 2.35991 14.9739 2.33861C14.9666 2.31096 14.9462 2.30001 14.9019 2.30001C14.854 2.30001 14.84 2.29126 14.84 2.26121C14.84 2.23081 14.8238 2.22106 14.765 2.21621C14.7145 2.21201 14.69 2.20026 14.69 2.18001C14.69 2.15996 14.6659 2.14801 14.6171 2.14391C14.5647 2.13956 14.5413 2.12686 14.5339 2.09891C14.5266 2.07096 14.5064 2.06001 14.4619 2.06001C14.4202 2.06001 14.4 2.05021 14.4 2.03001C14.4 2.01351 14.3842 2.00001 14.3648 2.00001C14.3455 2.00001 14.3184 1.98201 14.3047 1.96001C14.2908 1.93781 14.258 1.92001 14.231 1.92001C14.2032 1.92001 14.1688 1.90071 14.1508 1.87501C14.1334 1.85026 14.1149 1.83226 14.1096 1.83501C14.0778 1.85156 14.02 1.83541 14.02 1.81001C14.02 1.77856 14.0186 1.77781 13.9423 1.77006C13.916 1.76741 13.8863 1.75056 13.8763 1.73261C13.8651 1.71266 13.8322 1.70001 13.7914 1.70001C13.7415 1.70001 13.7221 1.68991 13.7142 1.66001C13.7085 1.63801 13.6894 1.62001 13.6719 1.62001C13.6544 1.62001 13.64 1.60746 13.64 1.59216C13.64 1.56336 13.5986 1.54001 13.5476 1.54001C13.5315 1.54001 13.499 1.52201 13.4754 1.50001C13.4518 1.47801 13.4117 1.46001 13.3863 1.46001C13.3585 1.46001 13.34 1.44801 13.34 1.43001C13.34 1.40906 13.3189 1.40001 13.27 1.40001C13.2134 1.40001 13.2 1.39241 13.2 1.36001C13.2 1.32666 13.1867 1.32001 13.12 1.32001C13.0602 1.32001 13.04 1.31201 13.04 1.28816C13.04 1.27061 13.022 1.25156 13 1.24581C12.978 1.24006 12.96 1.22191 12.96 1.20556C12.96 1.18726 12.9484 1.18016 12.93 1.18726C12.9135 1.19356 12.9 1.19006 12.9 1.17936C12.9 1.16871 12.8933 1.16106 12.885 1.16236C12.8321 1.17076 12.8024 1.15706 12.8131 1.12921C12.8196 1.11226 12.8171 1.09981 12.8075 1.10156C12.728 1.11606 12.66 1.09691 12.66 1.06001C12.66 1.02761 12.6467 1.02001 12.59 1.02001C12.5334 1.02001 12.52 1.01241 12.52 0.980005C12.52 0.946655 12.5067 0.940005 12.44 0.940005C12.3802 0.940005 12.36 0.932005 12.36 0.908155C12.36 0.890605 12.342 0.871555 12.32 0.865805C12.298 0.860055 12.28 0.842905 12.28 0.827655C12.28 0.811755 12.2595 0.800005 12.2317 0.800005C12.1591 0.800005 12.1212 0.780105 12.1334 0.748355C12.1416 0.727205 12.1264 0.720005 12.0735 0.720005C12.0203 0.720005 11.9996 0.710105 11.99 0.680005C11.9806 0.650255 11.9598 0.640005 11.9087 0.640005C11.8534 0.640005 11.84 0.632255 11.84 0.600005C11.84 0.578005 11.8333 0.561055 11.825 0.562355C11.7562 0.573255 11.6825 0.556755 11.6918 0.532605C11.7026 0.504405 11.6489 0.472155 11.6205 0.489705C11.6117 0.495155 11.5923 0.484455 11.5773 0.465955C11.5541 0.437405 11.5542 0.434855 11.5781 0.449255C11.5972 0.460755 11.6016 0.458755 11.5919 0.443105C11.5841 0.430405 11.5532 0.420005 11.5233 0.420005C11.4934 0.420005 11.4535 0.402005 11.4347 0.380005C11.411 0.352355 11.3757 0.340005 11.3202 0.340005C11.2563 0.340005 11.24 0.332705 11.24 0.303905C11.24 0.275605 11.2218 0.266755 11.1555 0.262855C11.1091 0.260105 11.0663 0.251605 11.0605 0.243955C11.0345 0.209455 10.9622 0.186205 10.8707 0.182905C10.8161 0.180955 10.7621 0.169205 10.7507 0.156755C10.7358 0.140505 10.7379 0.138655 10.7581 0.150155C10.7767 0.160755 10.7815 0.158555 10.7723 0.143655C10.7624 0.127605 10.5578 0.121105 10.0642 0.121155C9.61621 0.121205 9.38065 0.128005 9.4 0.140305ZM10.442 1.67321C10.4574 1.68601 10.506 1.70286 10.55 1.71076C10.594 1.71861 10.6435 1.73676 10.66 1.75101C10.6765 1.76521 10.7149 1.78311 10.7452 1.79066C10.7756 1.79826 10.8049 1.81176 10.8104 1.82066C10.8159 1.82961 10.8766 1.86551 10.9452 1.90046C11.0139 1.93541 11.106 1.98521 11.15 2.01121C11.194 2.03716 11.257 2.07236 11.29 2.08941C11.323 2.10651 11.413 2.15626 11.49 2.20001C11.567 2.24376 11.657 2.29376 11.69 2.31116C11.723 2.32856 11.786 2.36426 11.83 2.39056C11.874 2.41686 11.937 2.45206 11.97 2.46881C12.003 2.48551 12.0435 2.50776 12.06 2.51816C12.0765 2.52861 12.1035 2.54271 12.12 2.54951C12.1365 2.55636 12.186 2.58381 12.23 2.61056C12.274 2.63731 12.3325 2.67051 12.36 2.68431C12.3875 2.69811 12.4865 2.75326 12.58 2.80691C12.6735 2.86051 12.768 2.91291 12.79 2.92326C12.812 2.93361 12.866 2.96376 12.91 2.99021C12.954 3.01671 13.017 3.05191 13.05 3.06841C13.083 3.08491 13.173 3.13481 13.25 3.17936C13.327 3.22386 13.417 3.27396 13.45 3.29066C13.483 3.30741 13.573 3.3572 13.65 3.40136C13.727 3.44551 13.817 3.49536 13.85 3.51221C13.883 3.52901 13.946 3.56425 13.99 3.59055C14.034 3.61685 14.097 3.65235 14.13 3.6694C14.163 3.68651 14.253 3.73625 14.33 3.78C14.407 3.82376 14.497 3.8735 14.53 3.8906C14.563 3.90765 14.626 3.94285 14.67 3.96881C14.714 3.99481 14.804 4.04481 14.87 4.08C14.936 4.11521 15.026 4.16521 15.07 4.19121C15.114 4.21715 15.177 4.25231 15.21 4.26936C15.243 4.28636 15.306 4.32231 15.35 4.34921C15.394 4.37611 15.4435 4.40366 15.46 4.4105C15.4765 4.4173 15.5035 4.43141 15.52 4.44185C15.5365 4.45225 15.577 4.47475 15.61 4.49181C15.643 4.5088 15.706 4.54426 15.75 4.57056C15.794 4.59686 15.857 4.63191 15.89 4.64841C15.923 4.66491 16.013 4.7148 16.09 4.75936C16.167 4.80385 16.257 4.85396 16.29 4.87066C16.323 4.8874 16.413 4.9372 16.49 4.98136C16.567 5.02551 16.657 5.07536 16.69 5.09221C16.723 5.109 16.786 5.1444 16.83 5.17091C16.874 5.1974 16.9298 5.22786 16.9539 5.23861C17.1455 5.32396 17.6 5.78466 17.6 5.89346C17.6 5.90016 17.617 5.94261 17.6377 5.9878C17.6584 6.033 17.6946 6.133 17.7181 6.21L17.7609 6.35001L17.7555 9.97001C17.7503 13.374 17.7479 13.5938 17.715 13.654C17.6958 13.6892 17.68 13.7399 17.68 13.7666C17.68 13.7933 17.6671 13.8259 17.6513 13.839C17.6355 13.8521 17.6168 13.8891 17.6098 13.9212C17.6027 13.9533 17.5885 13.9848 17.5782 13.9912C17.5679 13.9975 17.5469 14.0327 17.5316 14.0694C17.4645 14.2298 17.1007 14.5484 16.8464 14.6692C16.8114 14.6858 16.7775 14.7079 16.7712 14.7182C16.7648 14.7285 16.7327 14.7429 16.6998 14.7501C16.6669 14.7573 16.64 14.7696 16.64 14.7775C16.64 14.7854 16.5838 14.8218 16.515 14.8583C16.4463 14.8949 16.354 14.9459 16.31 14.9716C16.266 14.9974 16.2019 15.0313 16.1675 15.0472C16.1331 15.063 16.0992 15.0852 16.0922 15.0964C16.0853 15.1077 16.0527 15.1229 16.0198 15.1301C15.9869 15.1373 15.96 15.1496 15.96 15.1575C15.96 15.1654 15.9038 15.2015 15.835 15.2378C15.7663 15.274 15.674 15.3247 15.63 15.3505C15.586 15.3762 15.523 15.411 15.49 15.4278C15.457 15.4447 15.367 15.4948 15.29 15.5394C15.213 15.5839 15.123 15.634 15.09 15.6507C15.057 15.6674 14.967 15.7172 14.89 15.7614C14.813 15.8055 14.723 15.8551 14.69 15.8716C14.657 15.8881 14.594 15.9229 14.55 15.9488C14.506 15.9748 14.416 16.0248 14.35 16.06C14.284 16.0952 14.194 16.1455 14.15 16.1719C14.106 16.1982 14.043 16.2335 14.01 16.2504C13.9514 16.2803 13.8464 16.339 13.635 16.4602C13.5773 16.4933 13.503 16.5342 13.47 16.551C13.437 16.5679 13.374 16.6029 13.33 16.6288C13.286 16.6548 13.196 16.7048 13.13 16.74C13.064 16.7752 12.974 16.8255 12.93 16.8519C12.886 16.8782 12.8214 16.9132 12.7864 16.9296C12.7514 16.946 12.7175 16.9679 12.7112 16.9782C12.7048 16.9885 12.6727 17.0029 12.6398 17.0101C12.6069 17.0173 12.58 17.0296 12.58 17.0375C12.58 17.0454 12.5238 17.0818 12.455 17.1183C12.3863 17.1549 12.294 17.2059 12.25 17.2316C12.206 17.2574 12.143 17.2919 12.11 17.3084C12.077 17.3249 11.987 17.3748 11.91 17.4194C11.833 17.4639 11.743 17.514 11.71 17.5306C11.6517 17.5602 11.5504 17.6168 11.335 17.7402C11.2773 17.7733 11.203 17.8142 11.17 17.831C11.137 17.8479 11.074 17.8827 11.03 17.9085C10.986 17.9343 10.9005 17.9799 10.84 18.0099C10.7795 18.0399 10.7165 18.0725 10.7 18.0824C10.5004 18.2015 9.87136 18.2586 9.70531 18.1728C9.67045 18.1548 9.6269 18.14 9.6084 18.14C9.5764 18.14 9.2009 17.9656 9.18001 17.941C9.17451 17.9345 9.1475 17.9184 9.12 17.9052C9.0925 17.892 9.007 17.8448 8.93001 17.8005C8.853 17.7561 8.763 17.7062 8.73 17.6896C8.697 17.673 8.6565 17.651 8.64 17.6407C8.5905 17.6097 8.19235 17.3876 8.16 17.3729C8.1435 17.3654 8.094 17.3375 8.05 17.311C8.006 17.2845 7.943 17.249 7.91 17.2322C7.877 17.2154 7.787 17.1655 7.71 17.1214C7.633 17.0772 7.543 17.0273 7.51 17.0104C7.477 16.9935 7.414 16.9582 7.37 16.9319C7.326 16.9055 7.236 16.8552 7.17 16.82C7.104 16.7848 7.014 16.7348 6.97 16.7088C6.926 16.6829 6.863 16.6477 6.83 16.6306C6.797 16.6135 6.707 16.5638 6.63 16.52C6.553 16.4763 6.463 16.4265 6.43 16.4094C6.397 16.3924 6.334 16.3569 6.29 16.3306C6.246 16.3043 6.183 16.2688 6.15 16.2518C6.117 16.2348 6.0765 16.2123 6.06 16.2019C6.0435 16.1914 6.0165 16.1773 6 16.1705C5.9835 16.1637 5.934 16.1366 5.89 16.1103C5.846 16.0839 5.756 16.0332 5.69 15.9976C5.5065 15.8985 5.4372 15.8599 5.35 15.8082C5.306 15.7822 5.2475 15.7495 5.22 15.7357C5.1925 15.7219 5.0935 15.6668 5 15.6131C4.9065 15.5595 4.812 15.5074 4.79 15.4973C4.768 15.4873 4.714 15.4574 4.67 15.4309C4.626 15.4044 4.563 15.369 4.53 15.3522C4.497 15.3354 4.407 15.2852 4.33 15.2407C4.253 15.1962 4.163 15.1459 4.13 15.1291C4.097 15.1122 4.034 15.0772 3.99 15.0512C3.946 15.0252 3.856 14.9752 3.79 14.94C3.724 14.9048 3.634 14.8548 3.59 14.8288C3.546 14.8029 3.483 14.768 3.45 14.7512C3.417 14.7345 3.3765 14.7121 3.36 14.7015C3.3435 14.6909 3.2625 14.6444 3.18 14.5981C3.0975 14.5518 3.0165 14.5019 3 14.487C2.67635 14.1957 2.55635 14.0215 2.4374 13.67L2.39 13.53V9.92C2.39 6.52476 2.3921 6.30541 2.425 6.23255C2.44425 6.18996 2.46 6.14041 2.46 6.12241C2.46 6.1044 2.50015 6.01095 2.5492 5.9148C2.64185 5.73336 2.6448 5.72875 2.73165 5.63C2.7607 5.597 2.7992 5.552 2.8172 5.53C2.88315 5.4495 3.0548 5.32336 3.25 5.2118C3.36 5.14895 3.4635 5.08891 3.48 5.07836C3.4965 5.06781 3.537 5.04566 3.57 5.02906C3.603 5.01251 3.693 4.96281 3.77 4.91865C3.847 4.87451 3.937 4.82466 3.97 4.80781C4.003 4.79101 4.066 4.75575 4.11 4.72945C4.154 4.70316 4.217 4.66765 4.25 4.65061C4.283 4.6335 4.373 4.58376 4.45 4.54001C4.527 4.49626 4.617 4.44626 4.65 4.42886C4.683 4.41146 4.746 4.37601 4.79 4.35006C4.834 4.3241 4.924 4.27431 4.99 4.23941C5.056 4.20456 5.146 4.15451 5.19 4.12816C5.234 4.10186 5.29865 4.06686 5.33365 4.05046C5.36865 4.03406 5.4025 4.01216 5.40885 4.00186C5.41525 3.99151 5.44735 3.97716 5.48025 3.96996C5.5131 3.96276 5.54 3.9504 5.54 3.9425C5.54 3.93465 5.59625 3.89826 5.665 3.86171C5.73375 3.82511 5.826 3.77461 5.87 3.7494C5.914 3.72425 6.0085 3.6736 6.08 3.63685C6.1515 3.60011 6.2147 3.56381 6.2204 3.55626C6.22615 3.54871 6.25315 3.53251 6.2804 3.52021C6.3077 3.50796 6.366 3.4761 6.41 3.44935C6.454 3.42265 6.5035 3.39465 6.52 3.38715C6.55235 3.37245 6.9505 3.15036 7 3.11936C7.0165 3.10906 7.057 3.08736 7.09 3.07111C7.123 3.05491 7.213 3.00521 7.29 2.96066C7.367 2.91616 7.457 2.86591 7.49 2.84906C7.523 2.83221 7.586 2.79716 7.63 2.77121C7.674 2.74521 7.764 2.69521 7.83 2.66001C7.896 2.62481 7.986 2.57451 8.03 2.54816C8.074 2.52186 8.137 2.48651 8.17 2.46961C8.203 2.45276 8.293 2.40281 8.37 2.35866C8.447 2.31451 8.537 2.26466 8.57 2.24781C8.603 2.23101 8.666 2.19576 8.71 2.16946C8.754 2.14316 8.817 2.10811 8.85 2.09161C8.883 2.07511 8.973 2.02521 9.05 1.98066C9.127 1.93616 9.217 1.88616 9.25 1.86956C9.283 1.85296 9.3235 1.83111 9.34 1.82096C9.39235 1.78871 9.5456 1.72631 9.68001 1.68245C9.82905 1.63385 10.3862 1.62711 10.442 1.67321Z" fill="#6D7078"/>
<path fill-rule="evenodd" clip-rule="evenodd" d="M8.93335 6.27336C8.926 6.28066 8.92 6.62661 8.92 7.04206C8.92 7.48441 8.9119 7.81866 8.9005 7.84871L8.881 7.90001L8.5655 7.90026C8.39195 7.90041 8.22975 7.90596 8.205 7.91261L8.16 7.92466V8.46236C8.16 8.75806 8.16225 9.00171 8.165 9.00381C8.16775 9.00591 8.32725 9.01266 8.51945 9.01881C8.86725 9.02996 8.86905 9.03026 8.89415 9.08001C8.91385 9.11901 8.9195 9.47576 8.9197 10.6989C8.92005 12.5176 8.939 12.828 9.0626 13.04C9.07225 13.0565 9.08905 13.0925 9.10005 13.12C9.111 13.1475 9.129 13.1835 9.14005 13.2C9.15105 13.2165 9.1692 13.2512 9.1803 13.277C9.19895 13.3204 9.25035 13.3822 9.38035 13.5176C9.4438 13.5837 9.67295 13.74 9.7064 13.74C9.72025 13.74 9.7648 13.757 9.80545 13.7777C9.8461 13.7984 9.91775 13.8212 9.9647 13.8283C10.0116 13.8353 10.086 13.854 10.13 13.8697C10.2472 13.9115 10.974 13.9115 11.1148 13.8697C11.171 13.853 11.2559 13.8311 11.3035 13.821C11.4092 13.7986 11.5889 13.7354 11.67 13.6922C11.703 13.6747 11.7403 13.6602 11.7529 13.6601C11.795 13.6599 11.8 13.5992 11.8 13.0896C11.8 12.5357 11.8024 12.5463 11.6889 12.599C11.4078 12.7293 10.8228 12.7752 10.6465 12.6807C10.6048 12.6583 10.5629 12.64 10.5534 12.64C10.5291 12.64 10.36 12.4762 10.36 12.4526C10.36 12.4419 10.3479 12.419 10.333 12.4016C10.2468 12.3008 10.2399 12.1661 10.24 10.5862L10.24 9.08226L10.2845 9.05116C10.3227 9.02436 10.43 9.02001 11.0528 9.02001C11.451 9.02001 11.791 9.01456 11.8084 9.00786C11.8361 8.99721 11.84 8.93006 11.84 8.46001C11.84 7.98996 11.8361 7.92281 11.8084 7.91216C11.791 7.90546 11.4418 7.90001 11.0324 7.90001C10.4801 7.90001 10.2818 7.89381 10.264 7.87601C10.2462 7.85821 10.24 7.66236 10.24 7.11851C10.24 6.71511 10.2344 6.35691 10.2275 6.32251L10.215 6.26001H9.58085C9.23205 6.26001 8.94065 6.26601 8.93335 6.27336Z" fill="#6D7078"/>
</svg>
