<svg width="35" height="35" viewBox="0 0 35 35" fill="none" xmlns="http://www.w3.org/2000/svg">
<path d="M6.20091 14.5833C5.95614 15.5362 5.83266 16.5161 5.83342 17.5C5.83342 18.5062 5.96175 19.4833 6.20091 20.4166H10.3542C10.1576 18.4772 10.1576 16.5228 10.3542 14.5833H6.20091ZM7.39383 11.6666H10.8151C11.203 9.89184 11.763 8.30225 12.4499 6.97954C10.3326 7.99953 8.57102 9.63259 7.39383 11.6666ZM28.7992 14.5833H24.6459C24.8425 16.5228 24.8425 18.4772 24.6459 20.4166H28.7992C29.2902 18.5032 29.2902 16.4967 28.7992 14.5833ZM27.6063 11.6666C26.4291 9.63259 24.6675 7.99953 22.5503 6.97954C23.2386 8.30225 23.7972 9.89184 24.1851 11.6666H27.6063ZM13.2884 14.5833C13.1792 15.5517 13.1246 16.5254 13.1251 17.5C13.1251 18.4989 13.1805 19.476 13.2884 20.4166H21.7118C21.9314 18.4784 21.9314 16.5215 21.7118 14.5833H13.2884ZM13.8105 11.6666H21.1897C20.9243 10.5704 20.5414 9.50598 20.0478 8.49183C19.132 6.66163 18.152 5.83329 17.5001 5.83329C16.8467 5.83329 15.8682 6.66163 14.9524 8.49183C14.493 9.4135 14.1065 10.4854 13.8105 11.6666ZM7.39383 23.3333C8.57102 25.3673 10.3326 27.0004 12.4499 28.0204C11.7615 26.6977 11.203 25.1081 10.8151 23.3333H7.39383ZM27.6063 23.3333H24.1851C23.7972 25.1081 23.2372 26.6977 22.5503 28.0204C24.6675 27.0004 26.4291 25.3673 27.6063 23.3333ZM13.8105 23.3333C14.1065 24.5145 14.493 25.5864 14.9524 26.5081C15.8682 28.3383 16.8482 29.1666 17.5001 29.1666C18.1534 29.1666 19.132 28.3383 20.0478 26.5081C20.5072 25.5864 20.8936 24.5145 21.1897 23.3333H13.8105ZM17.5001 32.0833C9.44571 32.0833 2.91675 25.5543 2.91675 17.5C2.91675 9.44559 9.44571 2.91663 17.5001 2.91663C25.5545 2.91663 32.0834 9.44559 32.0834 17.5C32.0834 25.5543 25.5545 32.0833 17.5001 32.0833Z" fill="white" fill-opacity="0.4"/>
</svg>
